if (_typeface_js && _typeface_js.loadFace) _typeface_js.loadFace({"glyphs":{"0":{"ha":561,"x_min":41,"x_max":514,"o":"m 514 309 q 495 212 514 260 q 443 122 477 164 q 364 50 410 80 q 279 9 322 22 q 178 -3 237 -3 q 78 38 114 -3 q 41 150 41 79 q 83 334 41 247 q 196 476 125 422 q 342 530 266 530 q 469 472 423 530 q 514 309 514 414 m 461 269 q 438 374 461 324 q 376 452 415 423 q 294 481 337 481 q 206 446 249 481 q 137 353 163 411 q 111 231 111 296 q 122 128 111 162 q 161 80 133 94 q 244 66 189 66 q 338 75 309 66 q 392 109 368 83 q 443 185 425 144 q 461 269 461 227 z "},"1":{"ha":386,"x_min":47,"x_max":322,"o":"m 322 519 q 317 503 320 511 q 314 492 314 495 q 257 318 288 439 q 213 149 227 197 q 158 40 199 100 q 47 -56 118 -21 q 119 90 94 26 q 154 204 143 153 q 180 317 165 255 q 220 436 195 378 q 81 406 134 406 l 81 428 q 201 457 147 435 q 322 519 254 479 z "},"2":{"ha":597,"x_min":39,"x_max":517,"o":"m 494 94 q 420 30 450 50 q 358 4 391 10 q 267 -3 326 -3 q 201 -4 247 -3 q 134 -5 156 -5 q 39 3 81 -5 q 134 119 75 64 q 282 244 193 174 q 412 357 371 315 q 453 433 453 398 q 426 475 453 460 q 350 489 399 489 q 244 462 283 489 q 205 389 205 435 q 208 353 205 364 q 136 319 183 334 q 134 339 134 334 q 132 352 133 345 q 131 367 131 358 q 167 456 131 421 q 255 505 203 490 q 361 519 308 519 q 474 488 431 519 q 517 406 517 456 q 475 321 517 360 q 338 225 434 281 q 194 137 242 168 q 111 61 145 105 l 180 61 q 350 67 279 61 q 494 94 421 73 z "},"3":{"ha":631,"x_min":-50,"x_max":528,"o":"m 119 322 q 116 346 117 337 q 115 360 115 355 q 114 375 114 366 q 174 477 114 439 q 339 514 235 514 q 476 487 425 514 q 528 416 528 460 q 468 318 528 367 q 300 231 408 269 q 456 89 456 197 q 415 -13 456 43 q 311 -103 374 -68 q 22 -172 189 -172 q -50 -167 11 -172 q 17 -94 -24 -119 q 102 -100 49 -94 q 186 -106 156 -106 q 288 -83 239 -106 q 366 -21 337 -60 q 395 61 395 18 q 205 170 395 170 q 149 166 186 170 q 94 161 113 163 q 139 231 113 204 q 213 246 140 231 q 333 281 286 262 q 411 332 380 300 q 441 411 441 364 q 336 486 441 486 q 228 459 267 486 q 189 383 189 431 q 192 353 189 364 q 158 336 158 336 q 137 332 146 336 q 119 322 128 327 z "},"4":{"ha":647,"x_min":11,"x_max":578,"o":"m 545 522 q 536 499 540 508 q 530 486 532 491 q 493 376 506 421 q 468 276 481 331 q 442 157 456 221 q 416 47 429 94 q 505 59 473 47 q 578 106 537 71 q 504 16 545 44 q 403 -14 464 -12 q 345 -171 382 -100 q 248 -281 309 -241 q 273 -218 260 -245 q 299 -160 286 -191 q 323 -97 313 -130 q 342 -14 333 -64 l 136 -14 q 69 -15 105 -14 q 11 -17 33 -17 q 91 163 40 79 q 211 317 142 248 q 366 440 280 387 q 545 522 452 494 m 481 472 q 321 381 400 446 q 183 229 241 316 q 100 53 125 142 l 353 47 q 374 171 363 120 q 400 276 385 222 q 434 373 416 329 q 481 472 452 418 z "},"5":{"ha":597,"x_min":-28,"x_max":539,"o":"m 53 158 q 75 226 56 167 q 115 339 94 286 q 158 436 135 393 q 203 494 182 479 q 319 517 242 517 q 349 515 330 517 q 380 514 369 514 l 539 514 q 513 478 526 492 q 488 458 501 465 q 453 450 475 452 q 397 447 431 447 l 250 447 q 215 440 228 447 q 190 416 201 434 q 167 364 179 399 l 127 264 q 220 333 180 313 q 311 353 261 353 q 399 334 360 353 q 459 281 438 315 q 481 205 481 248 q 437 68 481 144 q 330 -61 394 -8 q 200 -135 269 -112 q 41 -158 130 -158 q -28 -153 5 -158 q 56 -92 23 -105 q 102 -93 71 -92 q 150 -94 134 -94 q 300 -45 254 -94 q 375 74 347 12 q 403 192 403 137 q 371 282 403 247 q 286 317 338 317 q 203 290 244 317 q 127 226 163 264 q 56 150 92 189 l 53 158 z "},"6":{"ha":684,"x_min":81,"x_max":583,"o":"m 583 786 q 402 642 485 722 q 258 467 319 562 q 339 503 306 492 q 408 514 372 514 q 494 495 458 514 q 548 440 530 476 q 567 350 567 404 q 541 224 567 288 q 469 108 515 160 q 363 25 422 56 q 239 -5 304 -5 q 125 48 170 -5 q 81 183 81 102 q 125 371 81 275 q 245 552 170 467 q 410 702 320 638 q 583 791 500 765 l 583 786 m 489 311 q 458 422 489 391 q 347 453 428 453 q 246 415 288 453 q 183 318 204 376 q 161 203 161 260 q 201 87 161 133 q 302 41 241 41 q 370 64 336 41 q 430 124 404 87 q 472 211 456 161 q 489 311 488 260 z "},"7":{"ha":509,"x_min":61,"x_max":517,"o":"m 517 492 q 389 289 431 392 q 305 102 342 176 q 211 -44 268 27 q 78 -161 154 -115 l 78 -155 l 86 -144 q 162 -19 132 -78 q 250 163 192 39 q 346 352 308 287 q 433 475 383 417 q 292 486 361 486 q 165 472 202 486 q 127 422 127 457 q 133 384 127 407 q 139 350 138 361 q 78 302 119 323 q 61 422 61 372 q 82 478 61 458 q 148 508 102 498 q 272 517 193 517 q 338 515 307 517 q 417 508 369 513 q 517 500 465 504 l 517 492 z "},"8":{"ha":667,"x_min":47,"x_max":586,"o":"m 395 375 q 476 273 454 311 q 497 189 497 235 q 469 97 497 138 q 389 28 441 56 q 315 4 353 10 q 205 -3 277 -3 q 130 1 162 -3 q 79 13 97 5 q 55 37 62 22 q 47 75 47 52 q 70 168 47 125 q 129 242 93 210 q 200 296 164 274 q 300 355 235 318 q 247 408 271 383 q 205 458 222 432 q 189 514 189 484 q 250 607 189 560 q 388 684 310 653 q 511 714 467 714 q 586 636 586 714 q 583 595 586 616 q 514 528 539 545 q 515 570 514 541 q 517 614 517 600 q 507 664 517 650 q 475 677 498 677 q 393 656 446 677 q 298 604 340 635 q 256 542 256 573 q 276 498 256 524 q 330 439 297 471 q 372 397 363 407 l 456 439 q 468 446 460 441 q 481 453 476 450 q 492 456 487 456 q 505 444 505 456 q 482 424 505 437 q 395 375 459 410 m 322 336 q 180 238 235 290 q 125 114 125 186 q 137 80 125 92 q 180 63 149 68 q 272 58 212 58 q 411 77 372 58 q 450 142 450 95 q 432 215 450 180 q 392 270 413 249 q 322 336 372 290 z "},"9":{"ha":561,"x_min":41,"x_max":511,"o":"m 78 -281 q 155 -201 105 -248 q 231 -129 205 -154 q 288 -58 256 -103 q 345 45 320 -14 q 203 -3 263 -3 q 122 23 160 -3 q 63 94 85 49 q 41 189 41 138 q 85 347 41 270 q 197 470 128 423 q 342 517 267 517 q 473 480 434 517 q 511 355 511 444 q 470 149 511 252 q 360 -43 428 45 q 218 -194 293 -132 q 78 -281 144 -256 m 436 314 q 425 402 436 371 q 386 448 413 434 q 311 461 359 461 q 202 436 248 461 q 131 364 155 411 q 106 256 106 317 q 146 105 106 163 q 250 47 186 47 q 322 68 288 47 q 382 126 355 88 q 422 212 408 163 q 436 314 436 260 z "},"·":{"ha":1042,"x_min":174,"x_max":868,"o":"m 174 0 l 174 868 l 868 868 l 868 0 l 174 0 m 846 22 l 846 846 l 196 846 l 196 22 l 846 22 z "}," ":{"ha":300,"x_min":0,"x_max":0,"o":""},"!":{"ha":456,"x_min":131,"x_max":411,"o":"m 241 347 q 238 309 240 333 q 230 265 236 286 q 214 244 224 244 q 200 269 200 244 q 208 363 200 294 q 224 497 215 433 q 241 600 234 561 l 264 739 q 309 904 286 857 q 372 950 332 950 q 401 941 391 950 q 411 914 411 931 q 369 804 411 909 q 291 581 327 698 q 241 347 254 463 m 239 53 q 220 9 237 27 q 183 -8 204 -8 q 145 8 159 -8 q 131 50 131 25 q 140 81 131 66 q 164 105 149 96 q 195 114 179 114 q 228 95 216 114 q 239 53 239 75 z "},"\"":{"ha":456,"x_min":183,"x_max":509,"o":"m 220 553 l 183 553 l 244 925 l 325 925 l 220 553 m 403 553 l 367 553 l 428 925 l 509 925 l 403 553 z "},"#":{"ha":859,"x_min":103,"x_max":864,"o":"m 581 319 l 456 0 l 411 0 l 539 319 l 311 319 l 183 0 l 139 0 l 267 319 l 103 319 l 117 361 l 286 361 l 372 586 l 208 586 l 222 625 l 389 625 l 511 928 l 553 928 l 433 625 l 661 625 l 781 928 l 825 928 l 705 625 l 864 625 l 847 586 l 686 586 l 600 361 l 758 361 l 742 319 l 581 319 m 555 361 l 644 586 l 416 586 l 328 361 l 555 361 z "},"$":{"ha":667,"x_min":20,"x_max":628,"o":"m 481 798 q 533 786 484 797 q 605 760 582 776 q 628 708 628 743 q 607 652 628 680 q 553 608 586 625 q 566 640 561 627 q 576 668 571 652 q 581 697 581 684 q 554 746 581 730 q 469 766 528 762 l 406 478 q 452 407 423 450 q 501 328 480 363 q 535 252 522 292 q 547 170 547 212 q 526 79 547 119 q 465 19 504 40 q 372 -3 425 -3 l 306 -3 l 253 -236 l 214 -236 l 264 -3 q 227 -4 259 -3 q 175 -5 195 -5 q 20 56 20 -5 q 75 165 20 110 q 200 269 130 220 q 256 197 233 241 q 66 89 66 151 q 103 69 66 75 q 195 64 140 64 q 245 65 215 64 q 281 66 276 66 l 350 389 q 243 524 283 463 q 203 647 203 585 q 439 798 203 793 l 467 925 l 509 925 l 481 798 m 433 770 q 281 686 281 770 q 295 629 281 657 q 338 565 309 602 q 375 517 368 528 l 433 770 m 383 347 l 322 66 q 351 65 330 66 q 383 64 371 64 q 472 78 438 64 q 505 136 505 93 q 473 229 505 173 q 383 347 441 284 z "},"%":{"ha":911,"x_min":58,"x_max":842,"o":"m 794 275 q 765 161 794 221 q 692 61 736 102 q 616 14 652 27 q 522 0 579 0 q 358 114 358 0 q 398 248 358 179 q 503 361 438 316 q 639 406 568 406 q 720 389 684 406 q 775 343 756 373 q 794 275 794 313 m 722 222 q 692 335 722 292 q 614 378 662 378 q 523 345 566 378 q 456 260 481 311 q 431 161 431 209 q 443 101 431 124 q 484 68 456 79 q 555 58 512 58 q 657 73 621 58 q 707 123 692 88 q 722 222 722 157 m 842 872 l 103 -3 l 58 -3 l 794 872 l 842 872 m 522 747 q 484 609 522 671 q 381 511 446 547 q 241 475 316 475 q 126 506 169 475 q 83 589 83 537 q 125 724 83 656 q 234 836 168 792 q 367 880 300 880 q 449 864 414 880 q 503 817 484 847 q 522 747 522 787 m 447 697 q 418 808 447 767 q 339 850 389 850 q 247 817 289 850 q 180 733 204 785 q 155 636 155 682 q 170 573 155 595 q 219 542 184 551 q 317 533 254 533 q 392 550 363 533 q 434 603 420 568 q 447 697 447 639 z "},"&":{"ha":1034,"x_min":39,"x_max":1003,"o":"m 1003 444 q 889 370 973 370 q 836 372 856 370 q 831 358 836 363 q 817 317 831 357 q 734 152 783 216 q 619 55 684 87 q 476 11 553 22 q 281 0 398 0 q 109 24 179 0 q 39 117 39 47 q 76 238 39 174 q 176 360 113 303 q 311 450 239 416 q 372 478 353 469 q 304 506 330 490 q 265 541 277 521 q 253 586 253 560 q 342 721 253 664 q 550 807 431 778 q 745 836 669 836 q 798 808 798 836 q 771 747 798 794 q 725 669 745 701 l 631 664 l 644 681 q 697 748 677 718 q 717 789 717 779 q 692 803 717 803 q 589 785 649 803 q 469 734 528 767 q 371 658 409 701 q 334 567 334 614 q 356 519 334 536 q 419 503 379 503 q 494 510 444 503 q 572 517 543 517 q 603 500 603 517 q 547 461 603 476 q 413 413 494 446 q 254 336 331 380 q 123 237 176 292 q 69 127 69 182 q 82 99 69 108 q 130 85 95 90 q 264 78 165 81 q 340 75 296 78 q 408 72 385 72 q 675 136 599 72 q 749 234 717 174 q 781 336 781 293 q 714 378 781 378 q 660 371 679 378 q 616 348 642 363 q 567 325 591 333 q 608 375 578 345 q 669 426 645 410 q 714 446 692 441 q 772 450 736 450 l 831 450 l 1003 444 z "},"'":{"ha":281,"x_min":186,"x_max":330,"o":"m 225 553 l 186 553 l 248 925 l 330 925 l 225 553 z "},"(":{"ha":545,"x_min":66,"x_max":581,"o":"m 317 -350 q 181 -213 238 -288 q 95 -55 124 -137 q 66 114 66 28 q 108 349 66 224 q 223 596 150 474 q 389 813 297 718 q 578 961 481 909 l 581 947 q 358 723 454 852 q 210 443 262 594 q 158 136 158 291 q 197 -107 158 13 q 317 -350 237 -227 z "},")":{"ha":545,"x_min":20,"x_max":536,"o":"m 286 961 q 472 745 408 865 q 536 497 536 626 q 494 261 536 387 q 379 17 451 134 q 213 -199 307 -101 q 25 -350 119 -297 l 20 -339 q 195 -175 116 -267 q 329 22 273 -83 q 414 240 385 126 q 444 475 444 354 q 406 719 444 600 q 286 961 367 837 z "},"*":{"ha":475,"x_min":111,"x_max":431,"o":"m 431 833 l 311 789 q 306 772 311 778 l 372 700 l 339 677 l 281 747 q 267 745 278 745 l 231 631 l 192 631 l 239 747 q 235 751 237 750 q 233 753 233 753 l 231 753 l 125 705 l 111 745 l 222 778 l 225 786 q 228 791 227 787 q 231 800 229 794 l 161 878 l 197 895 l 253 825 q 267 828 261 828 l 306 945 l 347 945 l 294 825 q 300 822 297 822 q 302 819 301 821 q 306 814 303 817 l 414 867 l 431 833 z "},"+":{"ha":720,"x_min":100,"x_max":720,"o":"m 100 492 l 386 492 l 386 755 l 433 755 l 433 492 l 720 492 l 720 444 l 433 444 l 433 178 l 386 178 l 386 444 l 100 444 l 100 492 z "},",":{"ha":370,"x_min":56,"x_max":261,"o":"m 56 -150 q 141 -86 113 -117 q 172 -3 168 -56 q 127 36 127 -3 q 151 92 127 67 q 203 117 174 117 q 245 100 230 117 q 261 56 261 83 q 230 -37 261 6 q 152 -108 199 -79 q 56 -150 104 -137 z "},"-":{"ha":439,"x_min":111,"x_max":395,"o":"m 395 264 l 372 220 l 111 220 l 139 264 l 395 264 z "},".":{"ha":264,"x_min":83,"x_max":192,"o":"m 192 53 q 174 9 190 27 q 136 -8 157 -8 q 98 8 113 -8 q 83 50 83 25 q 92 81 83 66 q 116 105 101 96 q 147 114 132 114 q 180 95 168 114 q 192 53 192 75 z "},"/":{"ha":736,"x_min":0,"x_max":705,"o":"m 705 981 l 28 -392 l 0 -378 l 675 994 l 705 981 z "},":":{"ha":334,"x_min":111,"x_max":278,"o":"m 220 53 q 202 10 218 28 q 164 -8 186 -8 q 126 8 141 -8 q 111 50 111 25 q 120 81 111 66 q 144 105 129 96 q 175 114 159 114 q 208 95 196 114 q 220 53 220 75 m 278 403 q 261 359 276 376 q 222 342 245 342 q 187 358 201 342 q 172 397 172 374 q 192 444 172 423 q 236 464 211 464 q 268 446 258 464 q 278 403 278 427 z "},";":{"ha":370,"x_min":20,"x_max":292,"o":"m 20 -150 q 103 -85 76 -116 q 134 -3 130 -55 q 102 7 115 -3 q 89 36 89 16 q 112 92 89 68 q 167 117 135 117 q 207 100 192 117 q 222 56 222 83 q 160 -73 222 -18 q 20 -150 98 -127 m 292 403 q 282 373 291 387 q 262 352 274 359 q 236 345 250 345 q 198 359 213 345 q 183 397 183 374 q 202 444 183 425 q 248 464 221 464 q 280 445 269 464 q 292 403 292 425 z "},"<":{"ha":720,"x_min":125,"x_max":697,"o":"m 697 844 l 697 803 l 239 503 l 697 197 l 697 86 l 125 467 l 125 472 l 697 844 z "},"=":{"ha":720,"x_min":100,"x_max":720,"o":"m 100 586 l 720 586 l 720 539 l 100 539 l 100 586 m 100 395 l 720 395 l 720 347 l 100 347 l 100 395 z "},">":{"ha":720,"x_min":125,"x_max":697,"o":"m 125 86 l 125 127 l 581 428 l 125 730 l 125 844 l 697 464 l 697 456 l 125 86 z "},"?":{"ha":597,"x_min":103,"x_max":555,"o":"m 208 236 q 271 360 227 312 q 396 476 315 408 q 516 604 477 545 q 555 750 555 663 q 502 884 555 835 q 355 933 448 933 q 252 914 298 933 q 177 861 205 895 q 150 789 150 828 q 153 690 150 755 q 155 591 155 624 q 203 662 196 629 q 219 770 210 695 q 255 872 228 845 q 358 900 283 900 q 464 867 425 900 q 503 778 503 834 q 463 653 503 706 q 343 532 423 600 q 226 421 262 465 q 189 317 189 378 q 208 236 189 279 m 208 56 q 190 10 206 28 q 153 -8 174 -8 q 116 7 130 -8 q 103 47 103 22 q 121 93 103 75 q 164 111 138 111 q 198 95 188 111 q 208 56 208 79 z "},"@":{"ha":1103,"x_min":127,"x_max":1069,"o":"m 880 134 l 905 114 q 564 -22 731 -22 q 343 38 444 -22 q 185 203 243 99 q 127 431 127 308 q 169 637 127 542 q 286 803 211 732 q 459 913 360 874 q 669 953 558 953 q 833 927 758 953 q 960 856 908 901 q 1041 744 1013 810 q 1069 600 1069 679 q 1047 448 1069 524 q 986 316 1024 372 q 898 226 947 260 q 794 192 848 192 q 729 226 753 192 q 705 317 705 260 l 705 345 q 608 227 656 264 q 505 189 560 189 q 446 210 473 189 q 404 269 419 231 q 389 353 389 306 q 409 476 389 410 q 467 600 429 542 q 553 693 505 658 q 656 728 602 728 q 775 650 728 728 l 786 714 q 844 725 823 718 l 772 406 q 758 302 758 347 q 808 233 758 233 q 922 292 871 233 q 1000 434 972 351 q 1028 581 1028 517 q 1003 717 1028 654 q 932 823 979 779 q 821 891 885 867 q 677 914 756 914 q 514 888 594 914 q 371 813 435 862 q 269 700 307 764 q 208 555 233 637 q 183 416 183 473 q 236 218 183 309 q 380 73 289 127 q 578 20 472 20 q 731 50 658 20 q 880 134 804 81 m 739 536 q 745 553 743 546 q 750 573 747 560 q 753 595 753 585 q 729 670 753 643 q 664 697 706 697 q 555 634 604 697 q 478 486 506 572 q 450 339 450 400 q 472 258 450 288 q 530 228 493 228 q 626 276 581 228 q 700 393 671 325 q 733 509 729 461 q 739 536 739 536 z "},"A":{"ha":1522,"x_min":5,"x_max":1533,"o":"m 1533 361 q 1303 314 1428 314 q 1272 212 1295 290 q 1223 64 1249 134 q 1167 -63 1198 -7 q 1114 -119 1137 -119 q 1097 -111 1105 -119 q 1165 90 1140 -9 q 1214 322 1190 189 q 1059 348 1170 330 q 942 367 949 366 q 829 193 882 261 q 712 80 777 124 q 563 17 648 37 q 355 -3 478 -3 q 163 14 241 -3 q 45 62 85 30 q 5 139 5 94 q 30 212 5 176 q 100 280 55 248 q 208 339 146 313 q 347 386 271 366 q 745 439 533 439 q 939 428 822 439 q 1008 586 966 486 q 1191 833 1076 742 q 1464 925 1305 925 q 1492 923 1473 925 q 1533 920 1512 922 q 1451 814 1485 877 q 1391 677 1416 752 q 1348 512 1367 602 q 1320 378 1329 422 q 1381 368 1356 370 q 1458 364 1407 366 q 1533 361 1508 363 m 1231 392 q 1234 404 1232 396 q 1236 414 1235 411 q 1278 574 1267 535 q 1312 673 1289 612 q 1371 793 1336 734 q 1450 895 1406 851 q 1381 882 1413 892 q 1305 847 1350 871 q 1199 770 1249 817 q 1109 668 1149 724 q 1038 557 1068 611 q 970 425 1008 503 l 1231 392 m 911 372 q 669 392 766 392 q 505 382 592 392 q 347 355 418 372 q 255 325 309 346 q 155 278 202 304 q 72 217 107 252 q 36 144 36 181 q 364 72 36 72 q 548 84 469 72 q 697 127 628 96 q 820 219 766 159 q 911 372 875 279 z "},"B":{"ha":1069,"x_min":-28,"x_max":1055,"o":"m 786 494 q 908 458 878 477 q 954 421 932 446 q 991 363 975 396 q 1016 294 1008 330 q 1025 220 1025 258 q 995 111 1025 162 q 917 36 964 59 q 814 3 867 11 q 647 -5 760 -5 q 565 -4 617 -5 q 476 -1 513 -3 q 380 1 439 0 q 292 3 320 3 q 219 2 256 3 q 103 -2 182 1 q -28 -8 25 -5 q 46 49 8 35 q 144 73 83 63 q 242 99 205 82 q 306 161 279 116 q 368 315 345 222 q 418 512 391 408 q 497 688 446 616 q 650 800 549 760 q 592 715 617 760 q 547 620 567 671 q 511 517 527 570 l 469 358 q 429 230 447 273 q 373 150 410 187 q 272 83 336 113 q 353 81 311 81 q 424 82 376 81 q 497 83 471 83 q 651 78 557 83 q 794 72 745 72 q 910 79 875 72 q 958 108 945 87 q 970 175 970 129 q 951 278 970 227 q 905 358 933 329 q 799 410 875 388 q 639 433 724 431 q 567 467 567 437 q 575 488 567 477 q 595 500 583 498 q 774 519 692 504 q 918 580 856 534 q 981 711 981 627 q 886 843 981 798 q 614 889 791 889 q 483 882 547 889 q 368 861 418 874 q 286 828 319 847 q 239 733 239 800 q 242 685 239 715 q 249 626 245 655 q 256 572 254 596 q 258 525 258 549 q 205 395 258 462 l 167 631 q 158 733 158 707 q 182 815 158 787 q 267 864 206 844 q 400 898 325 882 q 555 922 475 913 q 697 930 635 930 q 888 908 806 930 q 1012 843 969 885 q 1055 742 1055 800 q 1016 624 1055 674 q 915 543 976 574 q 786 494 854 512 z "},"C":{"ha":789,"x_min":25,"x_max":778,"o":"m 700 117 q 525 24 610 50 q 322 -3 440 -3 q 110 50 194 -3 q 25 225 25 102 q 90 437 25 316 q 258 669 155 557 q 476 853 361 781 q 681 925 591 925 q 778 856 778 925 q 748 756 778 829 q 678 603 718 683 q 601 464 638 523 q 547 406 563 406 q 539 416 539 406 q 581 496 539 424 q 641 602 622 568 q 684 699 660 636 q 708 814 708 762 q 689 863 708 843 q 636 884 670 884 q 468 801 563 884 q 286 594 373 718 q 141 347 198 471 q 83 147 83 222 q 109 94 83 108 q 211 78 135 80 q 403 72 356 72 q 563 81 494 72 q 700 117 631 90 z "},"D":{"ha":1244,"x_min":8,"x_max":1181,"o":"m 139 416 q 110 567 119 503 q 100 700 100 631 q 158 895 100 832 q 336 958 216 958 q 642 877 490 958 q 914 674 793 795 q 1108 432 1035 553 q 1181 248 1181 312 q 1153 150 1181 198 q 1080 72 1124 102 q 980 24 1036 41 q 870 2 925 7 q 745 -3 814 -3 q 672 -1 726 -3 q 567 3 618 1 q 489 5 515 5 l 330 11 q 172 14 283 14 q 88 10 122 14 q 8 -3 54 7 q 144 64 60 45 q 293 102 228 84 q 395 172 358 119 q 445 291 426 221 q 493 458 464 361 q 570 615 522 555 q 703 703 618 675 q 608 549 631 612 q 553 374 585 486 q 477 201 522 262 q 336 89 433 140 q 328 83 333 89 l 700 66 q 886 61 761 61 q 969 65 932 61 q 1040 83 1006 69 q 1100 125 1075 97 q 1125 180 1125 156 q 1108 257 1125 210 q 1060 357 1090 303 q 981 477 1029 410 q 878 608 933 543 q 628 842 758 753 q 345 930 497 930 q 247 910 283 930 q 194 846 210 890 q 178 725 178 801 q 186 627 178 691 q 195 530 195 563 q 186 494 195 511 q 162 454 177 476 q 139 416 146 432 z "},"E":{"ha":806,"x_min":5,"x_max":842,"o":"m 705 134 q 612 61 661 89 q 515 21 564 33 q 411 4 466 8 q 283 0 356 0 l 231 0 q 71 21 136 0 q 5 106 5 41 q 19 163 5 134 q 64 236 33 193 q 425 497 193 408 q 314 529 363 507 q 240 581 266 550 q 214 647 214 612 q 279 758 214 706 q 442 848 345 810 q 634 907 539 886 q 783 928 729 928 q 842 884 842 928 q 766 758 842 846 q 644 730 710 730 l 659 745 q 728 824 709 798 q 747 867 747 850 q 737 887 747 880 q 708 895 726 895 q 546 853 645 895 q 373 748 446 812 q 300 616 300 684 q 450 525 300 525 q 545 531 484 525 q 647 536 607 536 q 708 522 708 536 q 664 481 708 500 q 509 436 621 462 q 395 407 442 422 q 292 361 347 391 q 124 244 217 321 q 31 111 31 167 q 51 80 31 87 q 134 72 71 72 l 372 72 q 486 76 439 72 q 586 94 533 80 q 705 134 639 108 z "},"F":{"ha":1069,"x_min":20,"x_max":1200,"o":"m 1050 456 l 1034 428 l 872 428 q 804 155 833 261 q 733 -50 776 50 q 671 -158 703 -118 q 598 -217 639 -199 q 505 -236 557 -236 q 374 -222 461 -236 q 236 -208 286 -208 l 150 -208 q 353 -144 231 -144 q 424 -152 385 -144 q 500 -167 463 -159 q 570 -175 538 -175 q 624 -163 603 -175 q 659 -120 644 -151 q 689 -31 673 -90 q 714 86 695 -5 q 753 278 733 178 q 783 428 772 378 q 575 419 675 428 l 589 456 l 791 456 q 837 616 814 550 q 897 742 859 682 q 997 850 935 801 q 550 861 714 861 q 261 850 361 861 q 127 824 183 842 q 72 753 72 805 q 96 674 72 709 q 176 574 120 639 q 262 457 233 509 q 292 345 292 405 q 289 302 292 322 q 242 366 271 326 q 211 408 213 406 q 153 480 188 439 q 87 563 118 521 q 38 645 56 604 q 20 722 20 685 q 131 857 20 810 q 379 919 243 904 q 623 933 516 933 q 925 930 784 933 q 1200 920 1065 927 q 1164 893 1179 901 q 1117 875 1149 886 q 1008 819 1046 848 q 950 750 969 790 q 914 635 931 710 q 875 456 897 559 l 1050 456 z "},"G":{"ha":1173,"x_min":47,"x_max":1189,"o":"m 1175 539 q 1088 376 1124 463 q 1022 215 1052 290 q 948 71 991 140 q 828 -72 905 2 q 707 -168 763 -133 q 594 -220 652 -203 q 467 -236 536 -236 q 401 -233 433 -236 q 326 -225 368 -231 q 244 -217 283 -220 q 172 -214 205 -214 q 47 -225 131 -214 q 136 -185 92 -199 q 226 -166 180 -171 q 330 -161 271 -161 q 397 -163 353 -161 q 467 -164 442 -164 q 728 -119 642 -164 q 843 -17 814 -75 q 923 181 872 40 q 1034 406 974 323 q 392 180 694 180 q 260 195 320 180 q 159 234 200 209 q 95 296 117 258 q 72 378 72 334 q 106 494 72 431 q 203 623 140 558 q 350 745 267 688 q 489 827 418 792 q 632 885 560 862 q 779 921 703 908 q 936 933 855 933 q 1069 917 1012 933 q 1158 872 1127 901 q 1189 803 1189 843 q 1178 764 1189 787 q 1150 720 1168 741 q 1048 616 1106 665 q 928 530 990 567 q 798 463 865 492 q 647 406 730 433 q 505 370 553 370 q 375 419 448 370 q 533 427 459 419 q 683 453 608 434 q 828 503 758 472 q 960 581 894 535 q 1076 686 1026 627 q 1125 803 1125 746 q 1077 880 1125 852 q 942 908 1028 908 q 658 859 798 908 q 406 729 517 810 q 229 553 294 648 q 164 367 164 457 q 243 259 164 298 q 458 220 323 220 q 558 229 505 220 q 673 257 612 238 q 792 300 734 275 q 908 355 850 325 q 972 394 943 376 q 1048 448 1000 413 q 1128 505 1096 482 q 1175 539 1160 528 z "},"H":{"ha":1419,"x_min":5,"x_max":1430,"o":"m 1430 478 q 1219 408 1338 416 q 1158 114 1200 225 q 1115 16 1138 54 q 1078 -22 1092 -22 q 1072 -14 1072 -22 q 1078 11 1072 -5 q 1141 408 1121 125 q 1061 413 1114 410 q 964 417 1008 415 q 875 422 919 420 q 736 177 829 270 q 515 43 644 83 q 225 3 387 3 q 63 35 121 3 q 5 125 5 66 q 122 283 5 195 q 280 373 191 336 q 464 432 369 410 q 653 464 558 454 q 847 478 749 475 q 859 608 859 565 q 814 928 859 764 l 900 994 q 920 875 914 930 q 925 753 925 821 q 889 478 925 625 q 1147 469 1061 478 q 1190 715 1165 605 q 1263 931 1215 825 q 1383 1117 1310 1037 q 1378 1092 1378 1094 q 1303 901 1332 1001 q 1257 700 1274 801 q 1225 469 1240 598 q 1270 468 1246 469 q 1308 467 1294 467 q 1430 478 1357 467 m 839 422 q 433 385 618 422 q 114 241 248 347 q 55 181 76 211 q 33 131 33 152 q 49 97 33 109 q 99 80 64 85 q 197 75 134 75 q 362 87 274 75 q 539 119 451 98 q 734 230 656 151 q 839 422 813 309 z "},"I":{"ha":700,"x_min":-125,"x_max":808,"o":"m 808 930 q 755 872 789 911 q 671 675 701 810 q 600 366 642 540 q 469 96 557 192 q 211 0 381 0 q -125 8 42 0 q 39 59 -45 45 q 202 74 123 73 q 343 77 281 75 q 422 92 405 79 q 489 238 463 121 q 540 473 515 355 q 613 706 564 591 q 753 903 661 821 q 616 875 676 894 q 407 767 492 833 q 268 612 322 701 q 184 419 214 523 q 136 178 155 316 q 106 353 106 261 q 171 592 106 484 q 342 774 236 700 q 570 889 448 849 q 808 930 693 928 z "},"J":{"ha":736,"x_min":-125,"x_max":811,"o":"m 811 928 q 755 857 771 880 q 725 803 739 833 q 687 683 708 762 q 631 463 665 604 q 572 225 596 321 q 528 69 547 129 q 587 68 548 69 q 644 66 625 66 q 714 69 692 66 q 648 26 673 39 q 594 7 623 14 q 494 -8 564 1 q 420 -148 466 -80 q 317 -269 374 -215 q 169 -381 245 -339 q 39 -422 94 -422 q -43 -401 -5 -422 q -103 -343 -81 -380 q -125 -267 -125 -307 q -84 -152 -125 -207 q 30 -52 -43 -96 q 205 23 102 -8 q 428 66 308 54 l 453 69 q 482 166 471 117 q 511 302 493 214 l 547 450 q 602 652 584 591 q 659 786 621 714 q 761 908 698 857 l 736 908 q 587 890 661 908 q 444 833 514 871 q 321 737 366 791 q 235 602 277 684 q 172 485 194 519 q 103 425 150 450 q 183 649 125 554 q 326 806 240 744 q 521 900 412 869 q 758 930 630 930 q 811 928 786 930 m 428 -11 q 389 -8 408 -8 q 253 -17 329 -8 q 106 -49 178 -26 q -13 -115 35 -71 q -61 -225 -61 -159 q -42 -300 -61 -266 q 9 -356 -24 -335 q 78 -378 41 -378 q 216 -317 132 -378 q 428 -11 352 -221 z "},"K":{"ha":1086,"x_min":-144,"x_max":1280,"o":"m 1280 908 q 1112 768 1207 858 q 948 612 1017 677 q 815 500 880 547 q 681 433 749 452 q 826 317 780 391 q 893 146 873 243 q 938 -63 913 50 q 1011 -248 963 -176 q 910 -151 950 -215 q 837 18 871 -87 q 781 202 804 123 q 730 339 758 281 q 619 428 694 412 q 581 273 600 336 q 523 149 561 209 q 425 50 484 88 q 330 13 387 24 q 189 3 273 3 q 116 4 166 3 q 39 5 66 5 q -144 -5 -60 5 q -65 49 -102 31 q 19 76 -28 68 q 136 83 65 83 q 212 82 161 83 q 289 81 264 81 q 403 88 367 81 q 458 118 439 96 q 485 175 477 140 q 514 314 494 210 q 544 458 530 389 q 568 572 558 527 q 589 659 578 618 q 628 762 608 724 q 675 829 648 800 q 761 908 703 857 q 684 911 736 911 q 533 903 610 911 q 387 878 457 895 q 264 836 317 861 q 211 750 211 811 q 222 662 211 720 q 233 570 233 604 q 216 492 233 536 q 172 416 199 448 q 148 597 168 472 q 127 761 127 722 q 140 810 127 791 q 183 844 153 829 q 288 882 221 863 q 418 912 354 901 q 554 929 483 923 q 703 936 626 936 q 817 930 783 936 q 739 831 771 887 q 687 714 707 776 q 656 610 666 653 q 625 453 647 566 q 715 473 673 453 q 791 526 757 494 q 861 603 825 558 l 953 720 q 1104 861 1031 814 q 1280 908 1178 908 z "},"L":{"ha":1017,"x_min":-47,"x_max":1072,"o":"m 933 92 q 850 32 897 52 q 752 4 803 11 q 642 -3 702 -3 l 244 -3 q 119 -5 203 -3 q -8 -8 35 -8 q -23 -7 -17 -8 q -33 -5 -30 -5 q -47 -3 -36 -5 q 84 50 0 39 q 241 73 168 61 q 361 131 315 84 q 448 261 414 187 q 523 454 481 334 q 583 616 564 574 q 677 764 621 695 q 808 877 734 832 q 961 922 882 922 q 1044 897 1016 922 q 1072 819 1072 871 q 1054 723 1072 777 q 1004 623 1035 670 q 933 539 973 575 q 943 606 933 573 q 969 680 952 639 q 996 754 986 721 q 1006 819 1006 787 q 942 895 1006 895 q 850 861 900 895 q 758 770 800 827 q 666 588 701 683 q 600 405 631 493 q 509 237 568 317 q 336 69 451 157 l 681 69 q 933 92 838 69 z "},"M":{"ha":1681,"x_min":5,"x_max":1650,"o":"m 1645 -136 q 1572 -54 1601 -102 q 1526 53 1544 -5 q 1502 169 1509 111 q 1495 283 1495 227 q 1504 400 1495 339 q 1529 539 1513 460 q 1553 671 1544 617 q 1561 766 1561 726 q 1553 819 1561 781 q 1459 674 1497 755 q 1351 417 1421 593 q 1233 153 1281 241 q 1122 20 1184 64 q 1085 99 1095 59 q 1075 214 1075 140 q 1083 345 1075 276 q 1106 504 1091 414 q 1128 655 1120 594 q 1136 775 1136 716 q 1128 864 1136 810 q 1059 771 1088 822 q 1008 669 1029 720 q 968 555 988 618 q 930 436 948 493 q 848 252 897 334 q 731 114 798 171 q 577 27 665 57 q 380 -3 489 -3 q 190 13 277 -3 q 55 57 104 29 q 5 119 5 85 q 178 278 5 192 q 382 361 269 322 q 606 426 495 399 q 825 469 717 453 l 825 467 q 758 417 798 439 q 674 381 717 395 q 575 354 631 367 q 489 334 519 340 q 377 307 445 326 q 229 259 309 288 q 94 195 149 229 q 39 125 39 160 q 102 87 39 100 q 289 75 165 75 q 539 89 452 75 q 775 204 697 109 q 920 498 854 300 q 1034 793 987 696 q 1197 953 1082 890 q 1217 822 1217 907 q 1208 673 1217 751 q 1183 495 1199 595 q 1159 326 1167 396 q 1150 183 1150 255 q 1161 94 1150 127 q 1269 300 1217 163 q 1369 564 1322 437 q 1480 787 1416 691 q 1645 928 1545 882 q 1650 878 1650 883 q 1639 725 1650 798 q 1603 531 1628 653 q 1569 341 1579 410 q 1558 200 1558 273 q 1579 32 1558 109 q 1645 -136 1600 -45 z "},"N":{"ha":1558,"x_min":5,"x_max":1744,"o":"m 1744 922 l 1708 833 q 1553 669 1611 766 q 1468 483 1496 573 q 1397 225 1440 393 q 1320 -31 1355 58 q 1242 119 1270 43 q 1202 274 1217 187 q 1170 504 1187 360 q 1135 726 1152 648 q 1089 844 1119 804 q 997 650 1041 787 q 885 337 918 419 q 787 172 852 255 q 609 43 721 89 q 325 -3 498 -3 q 89 29 173 -3 q 5 117 5 61 q 57 202 5 160 q 183 278 109 245 q 329 336 258 312 q 458 375 399 359 l 653 425 q 738 451 694 438 q 819 472 781 465 l 819 467 q 694 386 770 412 q 481 330 618 359 q 252 272 344 301 q 86 186 159 242 q 41 125 41 146 q 96 82 41 94 q 281 69 150 69 l 294 69 q 407 71 359 69 q 506 78 454 72 q 605 96 557 83 q 692 131 654 109 q 804 248 760 171 q 880 422 848 324 q 954 641 911 519 q 1044 833 997 762 q 1092 890 1067 869 q 1133 911 1116 911 q 1184 851 1158 911 q 1232 687 1211 791 q 1264 464 1253 583 l 1275 325 q 1295 168 1283 222 q 1325 83 1306 114 q 1392 328 1351 168 q 1466 602 1436 506 q 1565 790 1497 697 q 1744 922 1632 883 z "},"O":{"ha":1017,"x_min":58,"x_max":978,"o":"m 222 659 q 170 552 189 591 q 138 463 152 512 q 125 364 125 414 q 168 176 125 248 q 291 75 211 104 q 486 45 372 45 q 656 71 584 45 q 786 153 729 98 q 885 300 850 216 q 920 475 920 383 q 895 639 920 560 q 827 777 869 718 q 728 871 784 837 q 611 905 672 905 q 447 841 511 905 q 383 672 383 777 q 388 615 383 645 q 397 557 393 585 q 405 507 402 530 q 408 456 408 484 q 395 376 408 408 q 347 314 382 345 l 345 314 q 346 347 345 326 q 347 380 347 369 q 339 464 347 420 q 322 553 331 509 q 314 636 314 597 q 354 788 314 720 q 467 895 395 857 q 631 933 539 933 q 748 914 690 933 q 852 860 806 895 q 928 778 899 825 q 964 679 951 736 q 978 558 978 622 q 962 421 978 490 q 918 292 947 353 q 844 178 888 232 q 655 33 766 80 q 389 -14 543 -14 q 254 3 315 -14 q 149 56 193 20 q 82 148 105 92 q 58 283 58 204 q 68 397 58 343 q 102 504 79 452 q 158 603 125 556 q 192 646 179 634 q 225 661 205 657 l 222 659 z "},"P":{"ha":1208,"x_min":-53,"x_max":1200,"o":"m 783 781 q 692 619 717 675 q 632 417 667 555 q 561 194 597 278 q 448 55 524 111 q 239 0 372 0 q 94 3 191 0 q -53 5 -3 5 q 21 47 -20 31 q 112 71 61 64 q 233 78 163 78 q 315 75 269 78 q 386 72 362 72 q 441 89 421 72 q 476 150 461 105 q 514 302 491 194 q 552 453 534 390 q 601 578 571 515 q 677 695 631 642 q 783 781 723 748 m 164 253 q 106 360 151 283 q 38 490 62 437 q 14 581 14 542 q 50 665 14 619 q 153 753 86 711 q 346 843 235 805 q 577 902 456 882 q 825 922 699 922 q 1006 904 939 922 q 1117 842 1073 886 q 1178 743 1156 800 q 1200 623 1200 686 q 1149 458 1200 533 q 1011 340 1098 384 q 819 297 924 297 q 650 339 734 297 q 750 372 697 372 q 831 362 780 372 q 908 353 882 353 q 1016 380 962 353 q 1104 454 1069 408 q 1139 553 1139 500 q 1123 651 1139 600 q 1081 747 1108 702 q 1019 822 1054 793 q 789 886 952 886 q 269 783 502 886 q 174 726 216 758 q 107 661 132 694 q 83 600 83 627 q 95 544 83 572 q 129 472 106 516 q 165 394 152 429 q 178 322 178 359 q 164 253 178 291 z "},"Q":{"ha":964,"x_min":-125,"x_max":930,"o":"m 928 -31 q 825 -72 871 -60 q 728 -83 780 -83 q 630 -76 681 -83 q 503 -54 580 -68 q 365 -31 427 -39 q 236 -22 304 -22 q 144 -25 180 -22 q 7 -37 107 -28 q -125 -45 -94 -45 q 27 31 -60 8 q 253 53 115 53 l 302 53 q 523 158 423 89 q 703 334 622 227 q 786 464 750 393 q 842 602 823 534 q 861 725 861 669 q 812 863 861 814 q 672 911 763 911 q 490 868 580 911 q 319 745 401 826 q 153 330 153 574 q 220 220 153 220 q 303 234 264 220 q 399 274 343 248 q 497 316 455 301 q 583 330 539 330 q 614 328 600 330 q 487 253 566 307 q 366 176 409 199 q 267 153 323 153 q 168 198 206 153 q 113 306 130 243 q 97 431 97 369 q 150 631 97 538 q 289 793 202 724 q 475 899 375 862 q 669 936 576 936 q 808 905 749 936 q 899 816 867 874 q 930 677 930 758 q 861 436 930 557 q 668 214 791 314 q 395 61 545 115 q 378 54 385 57 q 364 47 371 50 q 558 15 429 39 q 768 -20 688 -9 q 928 -31 848 -31 z "},"R":{"ha":1558,"x_min":5,"x_max":1597,"o":"m 1341 -158 q 1306 -148 1318 -154 q 1267 -117 1295 -141 q 1173 6 1203 -58 q 1118 173 1142 71 q 1076 326 1093 275 q 1017 431 1059 378 q 982 476 991 460 q 972 517 972 492 q 978 558 972 536 q 1046 503 1013 536 q 1111 431 1080 469 l 1169 431 q 1298 462 1235 431 q 1411 549 1361 494 q 1489 669 1461 604 q 1516 800 1516 735 q 1487 877 1516 854 q 1386 900 1458 900 q 1193 860 1284 900 q 1036 747 1101 821 q 962 633 983 690 q 907 457 941 576 q 833 260 873 338 q 714 106 793 181 q 628 41 670 64 q 532 9 586 18 q 395 0 477 0 q 283 3 338 0 q 162 20 227 6 q 51 62 96 33 q 5 139 5 92 q 64 222 5 180 q 351 351 195 307 q 694 419 506 395 q 620 359 652 373 q 484 328 588 345 q 319 293 428 320 q 123 226 210 266 q 36 142 36 186 q 107 90 36 108 q 314 72 178 72 q 564 83 405 72 q 685 123 641 90 q 750 209 728 157 q 791 342 772 260 l 825 481 q 902 662 850 580 q 1027 803 954 743 q 1191 893 1101 862 q 1383 925 1281 925 q 1597 775 1597 925 q 1561 640 1597 707 q 1465 519 1526 573 q 1329 436 1404 466 q 1175 406 1254 406 l 1122 406 q 1170 263 1146 355 q 1211 107 1194 172 q 1256 -23 1227 42 q 1328 -139 1284 -88 q 1341 -158 1339 -150 z "},"S":{"ha":1050,"x_min":5,"x_max":1089,"o":"m 772 309 q 700 314 722 314 q 558 307 631 314 q 413 285 486 300 q 272 248 340 270 q 107 171 174 214 q 41 100 41 129 q 81 72 41 78 q 269 66 120 66 l 509 66 q 850 89 724 66 q 880 133 869 106 q 892 192 892 160 q 846 325 892 252 q 712 498 801 397 q 591 643 624 600 q 558 725 558 687 q 595 812 558 772 q 689 880 631 852 q 804 922 746 908 q 905 936 861 936 q 1041 913 993 936 q 1089 850 1089 890 q 1074 790 1089 832 q 1034 747 1058 747 q 1025 758 1025 747 q 1033 789 1025 770 q 1042 819 1042 808 q 995 879 1042 857 q 864 900 948 900 q 755 882 808 900 q 672 833 703 863 q 642 770 642 803 q 702 659 642 732 q 822 516 762 586 q 928 369 883 446 q 972 211 972 291 q 916 87 972 133 q 770 20 859 41 q 602 -6 681 -1 q 431 -11 523 -11 q 118 16 231 -11 q 5 92 5 43 q 69 179 5 131 q 244 272 132 227 q 454 336 348 313 q 677 372 560 359 l 772 309 z "},"T":{"ha":1050,"x_min":20,"x_max":1133,"o":"m 33 -3 q 169 59 96 46 q 350 72 242 72 q 425 71 396 72 q 483 70 454 71 q 558 69 512 69 q 645 76 614 69 q 698 102 676 83 q 737 159 720 122 q 775 261 754 197 l 814 395 q 862 563 843 506 q 916 682 880 621 q 1008 789 951 743 q 851 815 929 802 q 692 842 773 829 q 551 866 663 846 q 366 894 439 886 q 228 903 293 903 q 124 865 157 903 q 92 745 92 827 q 101 655 92 714 q 111 561 111 596 q 64 416 111 516 q 20 694 20 606 q 98 887 20 836 q 325 939 177 939 q 575 924 441 939 q 822 892 709 910 q 1133 839 935 873 q 1086 807 1107 822 q 1046 778 1064 792 q 1014 747 1029 764 q 986 705 1000 730 q 908 461 946 623 q 832 212 869 300 q 694 62 794 125 q 403 0 595 0 q 295 0 342 0 q 210 -1 249 -1 q 133 -2 172 -2 q 33 -3 94 -3 z "},"U":{"ha":1278,"x_min":56,"x_max":1225,"o":"m 1225 111 q 1135 28 1188 56 q 1008 0 1081 0 q 959 4 976 0 q 931 18 941 7 q 918 47 922 28 q 914 100 914 65 q 922 248 914 172 q 722 66 833 140 q 497 -8 611 -8 q 442 16 456 -8 q 428 111 428 41 q 449 286 428 194 q 513 514 469 378 q 572 708 556 650 q 589 811 589 765 q 553 879 589 855 q 450 903 517 903 q 309 887 382 903 q 180 832 235 871 q 125 728 125 793 q 147 604 125 688 q 170 472 170 519 q 136 361 170 408 l 97 497 q 56 700 56 640 q 123 833 56 781 q 283 909 191 886 q 458 933 376 933 q 612 901 563 933 q 661 800 661 869 q 654 722 661 760 q 628 619 647 684 l 586 486 q 524 258 545 354 q 503 66 503 163 q 522 28 503 28 q 814 172 669 28 q 927 332 893 252 q 994 533 961 412 q 1066 723 1027 654 q 1189 842 1104 793 q 1089 596 1140 735 q 1003 316 1039 456 q 961 75 966 176 q 1060 77 1020 75 q 1144 87 1099 79 q 1225 111 1188 96 z "},"V":{"ha":1034,"x_min":28,"x_max":1181,"o":"m 1181 936 q 1145 745 1179 838 q 1061 572 1112 653 q 937 399 1010 491 q 808 239 863 307 l 603 -25 q 530 186 530 60 q 544 318 530 255 q 587 483 557 382 q 632 654 616 583 q 647 791 647 724 q 525 933 647 933 q 386 898 460 933 q 242 803 311 862 q 133 674 174 743 q 92 542 92 604 q 135 424 92 489 q 231 302 178 358 q 189 294 201 294 q 110 330 147 294 q 50 418 73 366 q 28 511 28 471 q 76 660 28 581 q 202 809 124 739 q 368 921 280 878 q 528 964 456 964 q 673 913 624 964 q 722 761 722 862 q 708 625 722 692 q 665 459 693 557 q 624 303 637 362 q 611 175 611 245 q 639 72 611 123 l 798 281 q 943 484 888 401 q 1039 666 998 566 q 1089 875 1080 766 l 1181 936 z "},"W":{"ha":1348,"x_min":28,"x_max":1497,"o":"m 1497 928 q 1433 692 1485 804 q 1275 415 1381 579 q 1120 172 1168 251 q 1036 -17 1072 92 q 994 107 1008 47 q 981 239 981 167 q 987 338 981 290 q 1009 474 994 387 q 1032 613 1025 562 q 1039 720 1039 665 q 1019 766 1039 766 q 958 681 998 766 q 935 633 949 664 q 902 555 921 602 q 869 478 882 509 q 828 359 855 439 q 778 218 801 279 q 726 99 755 157 q 659 -8 697 41 q 602 123 618 57 q 586 281 586 189 q 590 374 586 338 q 606 513 593 411 q 623 670 618 614 q 628 781 628 725 q 603 866 628 837 q 530 895 577 895 q 409 868 481 895 q 267 798 338 842 q 151 703 197 754 q 106 603 106 652 q 122 510 106 565 q 160 400 138 456 q 203 302 183 344 q 106 350 155 317 q 51 477 74 406 q 28 589 28 548 q 91 711 28 649 q 245 824 153 773 q 432 905 338 874 q 583 936 526 936 q 682 898 650 936 q 714 778 714 859 q 702 620 714 708 q 676 442 689 531 q 664 283 664 353 q 689 114 664 184 q 756 245 732 182 q 823 441 779 308 q 903 655 867 575 q 994 800 939 735 q 1067 847 1033 847 q 1108 821 1094 847 q 1122 745 1122 795 q 1113 620 1122 682 q 1088 474 1104 558 q 1064 331 1072 391 q 1055 211 1055 271 q 1064 119 1055 178 q 1166 301 1097 182 q 1281 504 1236 420 q 1360 684 1325 589 q 1409 878 1395 779 l 1497 928 z "},"X":{"ha":1120,"x_min":-53,"x_max":1239,"o":"m 1239 925 q 1180 786 1219 854 q 1093 662 1140 719 q 991 550 1045 606 q 864 422 937 494 q 910 245 891 318 q 954 98 929 173 q 1011 -48 978 22 q 1086 -180 1044 -118 q 1011 -126 1050 -170 q 932 -9 972 -83 q 856 161 892 65 q 789 367 819 257 q 699 270 746 321 q 610 179 651 218 q 517 99 569 140 q 414 31 466 59 q 369 12 389 17 q 322 4 350 6 q 228 3 295 3 l 66 3 q 42 1 60 3 q 17 0 24 0 q -53 14 -20 0 q 57 64 3 50 q 192 78 111 78 q 227 77 199 78 q 278 75 256 75 q 360 78 328 75 q 427 92 391 81 q 492 122 463 103 q 569 182 530 148 q 632 240 609 216 q 694 306 655 264 q 781 397 734 348 q 675 733 726 603 q 639 814 656 781 q 592 870 621 848 q 522 892 563 892 q 428 876 483 892 q 318 833 373 860 q 228 778 262 807 q 183 692 183 745 q 244 509 183 627 q 228 408 232 431 q 214 358 223 385 q 114 667 114 576 q 163 769 114 720 q 285 854 213 819 q 434 910 357 889 q 561 930 511 930 q 640 912 605 930 q 697 861 675 895 q 749 772 726 821 q 788 680 773 723 q 821 578 803 637 q 856 458 838 519 q 960 578 907 512 q 1056 716 1012 644 q 1136 861 1101 788 q 1181 893 1159 881 q 1239 925 1204 906 z "},"Y":{"ha":1156,"x_min":28,"x_max":1222,"o":"m 1222 869 q 1203 825 1207 834 q 1147 670 1169 744 q 1086 450 1126 597 l 1053 309 q 967 -2 1005 109 q 861 -196 928 -114 q 676 -321 794 -279 q 372 -364 559 -364 q 325 -362 351 -364 q 267 -358 300 -360 q 336 -261 301 -300 q 389 -285 359 -279 q 472 -292 418 -292 q 836 -178 744 -292 q 891 -59 865 -142 q 933 114 916 24 q 961 278 951 204 q 806 129 863 180 q 670 35 749 77 q 511 -8 592 -8 q 450 122 450 -8 q 469 274 450 183 q 524 500 488 366 q 579 713 560 634 q 597 839 597 791 q 582 884 597 868 q 539 900 567 900 q 424 880 496 900 q 279 825 352 860 q 157 747 206 791 q 109 656 109 703 q 150 486 109 610 l 214 302 l 111 347 q 70 462 85 419 q 41 554 55 505 q 28 642 28 604 q 87 739 28 686 q 233 836 146 791 q 414 908 321 880 q 570 936 507 936 q 651 913 622 936 q 681 850 681 890 q 670 766 681 821 q 640 636 659 711 q 608 509 621 561 l 558 297 q 522 109 522 157 q 532 54 522 75 q 555 33 541 33 q 630 58 578 33 q 733 117 682 82 q 912 292 852 197 q 1020 528 972 387 q 1104 740 1069 669 q 1222 869 1139 810 z "},"Z":{"ha":964,"x_min":-53,"x_max":1067,"o":"m 1067 892 q 1036 881 1047 885 q 1017 875 1025 878 q 887 793 950 854 q 778 666 824 732 q 669 503 732 601 l 586 370 q 490 243 545 304 q 378 142 434 182 q 322 108 345 121 q 281 78 299 95 l 497 78 q 603 80 547 79 q 700 85 659 81 q 783 100 741 89 q 872 134 826 111 q 787 44 847 73 q 662 9 726 16 q 511 3 597 3 l -53 3 q 40 60 -12 47 q 175 78 92 73 q 269 113 222 82 q 369 207 316 144 q 492 380 421 269 l 606 561 q 680 666 644 620 q 756 752 715 713 q 846 823 798 791 q 958 886 894 855 q 753 905 858 905 q 506 878 621 905 q 322 804 391 850 q 253 708 253 759 q 300 581 253 667 l 378 447 q 339 444 361 444 q 292 447 311 444 q 205 584 240 517 q 170 703 170 651 q 217 790 170 749 q 347 865 264 832 q 534 915 430 897 q 753 933 639 933 q 926 922 841 933 q 1067 892 1011 911 z "},"[":{"ha":720,"x_min":216,"x_max":708,"o":"m 458 -117 l 453 -142 l 216 -142 l 472 1017 l 708 1017 l 703 991 q 600 988 632 991 q 553 975 568 985 q 531 938 538 964 q 517 880 524 913 l 322 -5 q 311 -72 311 -47 q 334 -110 311 -100 q 395 -119 356 -119 q 429 -118 408 -119 q 458 -117 451 -117 z "},"\\":{"ha":736,"x_min":355,"x_max":458,"o":"m 355 981 l 395 994 l 458 -378 l 425 -392 l 355 981 z "},"]":{"ha":720,"x_min":103,"x_max":595,"o":"m 103 -142 l 109 -117 q 148 -118 123 -117 q 180 -119 172 -119 q 235 -112 216 -119 q 269 -79 255 -104 q 294 -5 283 -54 l 489 880 q 500 947 500 932 q 477 983 500 974 q 416 991 455 991 l 353 991 l 358 1017 l 595 1017 l 339 -142 l 103 -142 z "},"^":{"ha":720,"x_min":31,"x_max":789,"o":"m 789 400 l 747 400 l 447 859 l 144 400 l 31 400 l 411 972 l 419 972 l 789 400 z "},"_":{"ha":720,"x_min":100,"x_max":720,"o":"m 100 -122 l 720 -122 l 720 -170 l 100 -170 l 100 -122 z "},"`":{"ha":720,"x_min":317,"x_max":472,"o":"m 317 705 q 386 653 357 676 q 438 598 414 629 q 472 528 461 566 q 454 532 458 530 q 433 547 450 534 q 391 585 404 573 q 363 612 377 597 q 340 646 350 627 q 317 700 330 664 l 317 705 z "},"a":{"ha":597,"x_min":41,"x_max":564,"o":"m 564 94 q 494 16 518 35 q 433 -3 469 -3 q 367 26 389 -3 q 345 103 345 56 q 276 51 308 75 q 215 12 243 26 q 158 -3 186 -3 q 70 20 98 -3 q 41 92 41 43 q 71 202 41 146 q 147 302 100 258 q 251 372 194 346 q 361 397 307 397 q 478 309 478 397 q 466 232 478 272 q 430 136 453 191 q 400 64 406 80 l 433 64 q 564 94 518 64 m 414 325 q 364 372 414 372 q 240 338 298 372 q 148 247 182 304 q 114 125 114 190 q 129 77 114 90 q 183 64 144 64 q 268 78 239 64 q 334 134 298 92 q 389 227 364 168 q 414 325 414 285 z "},"b":{"ha":561,"x_min":11,"x_max":542,"o":"m 542 378 l 530 334 l 436 334 q 435 296 436 321 q 433 258 433 271 q 388 130 429 191 q 279 33 346 69 q 142 -3 213 -3 q 83 0 123 -3 q 25 3 44 3 q 23 1 24 1 q 22 0 22 0 q 11 8 11 0 l 11 11 q 22 45 11 14 q 96 312 50 100 q 174 646 142 524 q 266 874 206 767 q 411 981 326 981 q 500 905 500 981 q 419 733 500 810 q 353 684 366 684 q 347 692 347 684 q 408 778 372 720 q 444 892 444 837 q 395 950 444 950 q 241 639 309 950 q 210 487 226 560 q 178 353 193 414 q 138 201 163 293 q 97 61 112 109 q 139 58 117 58 q 302 89 254 58 q 368 151 345 113 q 392 233 392 190 q 382 289 392 268 q 347 334 372 311 l 269 334 l 283 378 l 542 378 z "},"c":{"ha":456,"x_min":41,"x_max":416,"o":"m 416 86 q 347 20 370 37 q 297 -1 324 3 q 200 -5 270 -5 q 41 106 41 -5 q 86 247 41 178 q 203 356 131 315 q 353 397 275 397 q 400 367 400 397 q 385 299 400 354 q 348 200 369 245 q 309 155 326 155 q 302 164 302 155 q 322 214 302 164 q 342 300 342 264 q 309 325 342 325 q 195 291 250 325 q 104 205 139 258 q 69 103 69 153 q 84 71 69 79 q 150 61 99 63 q 204 60 168 61 q 258 58 241 58 q 416 86 355 58 z "},"d":{"ha":597,"x_min":41,"x_max":653,"o":"m 653 981 l 642 961 q 561 767 589 871 q 504 494 532 664 q 461 243 476 324 q 408 64 446 163 q 495 74 455 64 q 564 106 534 83 q 436 0 505 0 q 387 9 404 0 q 361 41 369 18 q 353 106 354 64 q 281 48 311 69 q 215 11 252 26 q 136 -5 178 -5 q 41 83 41 -5 q 69 185 41 130 q 141 290 96 241 q 240 370 186 339 q 342 400 294 400 q 419 383 379 400 q 450 555 435 473 q 486 717 465 637 q 543 870 507 798 q 628 986 578 942 l 653 981 m 406 325 q 345 375 406 375 q 260 353 299 375 q 189 294 220 332 q 140 213 158 257 q 122 125 122 168 q 138 75 122 90 q 192 61 153 61 q 295 91 247 61 q 367 175 342 121 q 406 325 406 266 z "},"e":{"ha":475,"x_min":41,"x_max":450,"o":"m 406 378 q 345 311 389 311 q 280 336 319 311 q 216 361 241 361 q 176 343 196 361 q 155 306 155 326 q 200 266 155 281 q 317 250 244 250 q 294 195 317 207 q 234 189 262 191 q 179 177 207 186 q 133 149 152 169 q 114 94 114 129 q 186 58 114 58 l 269 58 q 351 68 317 58 q 444 114 385 79 l 450 114 q 388 49 414 71 q 333 16 362 28 q 268 1 303 4 q 178 -3 233 -3 q 79 13 117 -3 q 41 72 41 29 q 76 146 41 119 q 175 205 110 172 q 126 237 138 225 q 114 269 114 249 q 130 326 114 298 q 172 373 146 355 q 228 392 198 392 l 241 392 l 406 378 z "},"f":{"ha":422,"x_min":-53,"x_max":536,"o":"m 536 933 l 514 859 q 433 872 462 872 q 373 836 397 872 q 325 711 349 800 l 236 345 l 386 345 l 375 297 l 225 302 q 178 97 202 196 q 129 -93 154 -2 q 72 -284 104 -184 q 5 -472 40 -384 q -28 -497 -5 -497 q -53 -484 -53 -497 q -47 -461 -53 -477 q 7 -294 -24 -418 q 56 -86 39 -170 l 100 100 l 134 241 l 147 306 l 89 306 l 103 350 l 158 350 q 201 509 172 401 q 270 713 231 617 q 362 874 309 809 q 478 939 414 939 q 536 933 505 939 z "},"g":{"ha":561,"x_min":-33,"x_max":481,"o":"m 378 125 q 329 76 349 96 q 285 37 309 56 q 235 8 262 19 q 178 -3 209 -3 q 104 7 133 -3 q 63 39 76 17 q 50 97 50 61 q 79 207 50 153 q 155 303 108 260 q 260 372 202 347 q 372 397 317 397 q 481 317 481 397 q 447 95 481 241 q 378 -150 413 -51 q 312 -312 345 -248 q 222 -418 279 -376 q 81 -461 165 -461 q -6 -449 22 -461 q -33 -411 -33 -437 q -16 -359 -33 -395 q 23 -295 1 -323 q 61 -267 46 -267 q 68 -270 65 -267 q 72 -278 72 -273 q 56 -304 72 -284 q 32 -335 39 -325 q 25 -358 25 -346 q 62 -397 25 -380 q 153 -414 100 -414 q 219 -375 193 -414 q 289 -214 245 -336 q 327 -95 310 -154 q 357 19 345 -36 q 378 125 370 73 m 422 317 q 408 360 422 348 q 358 372 394 372 q 245 338 300 372 q 156 247 191 303 q 122 131 122 191 q 140 79 122 95 q 200 64 158 64 q 286 80 250 64 q 350 131 321 96 q 402 220 382 170 q 422 317 422 270 z "},"h":{"ha":545,"x_min":11,"x_max":514,"o":"m 514 100 q 452 34 481 56 q 390 6 422 13 q 309 0 359 0 l 239 0 q 305 110 275 53 q 352 214 335 167 q 370 292 370 262 q 356 331 370 317 q 317 345 342 345 q 237 307 276 345 q 168 217 198 269 q 112 107 138 165 q 64 0 85 48 l 11 0 q 59 150 39 77 q 97 306 79 222 l 127 441 q 232 817 170 650 q 406 983 294 983 q 469 960 446 983 q 492 895 492 937 q 462 800 492 850 q 380 705 433 749 q 368 694 374 700 q 356 685 361 688 q 345 681 351 681 q 336 689 336 681 q 356 712 336 692 q 393 756 376 733 q 425 810 410 779 q 439 880 439 842 q 425 929 439 910 q 389 947 410 947 q 292 830 329 947 q 217 509 254 713 q 158 253 179 305 q 266 361 221 330 q 361 392 311 392 q 425 370 403 392 q 447 306 447 347 q 434 240 447 271 q 398 178 420 209 q 347 114 376 147 q 302 61 317 81 l 370 61 q 514 100 452 61 z "},"i":{"ha":317,"x_min":47,"x_max":289,"o":"m 203 383 q 163 283 180 347 q 129 162 145 219 q 86 64 113 104 q 122 62 99 64 q 155 61 145 61 q 289 92 239 61 q 240 35 261 54 q 195 6 218 15 q 139 -3 171 -3 q 71 24 95 -3 q 47 97 47 50 q 80 259 47 153 q 117 383 113 366 l 203 383 m 275 586 q 236 518 275 574 q 178 461 197 461 q 164 484 164 461 q 181 586 164 553 q 233 619 198 619 q 262 611 250 619 q 275 586 275 602 z "},"j":{"ha":281,"x_min":-94,"x_max":292,"o":"m 208 383 q 158 197 181 296 q 107 -15 134 99 q 47 -231 80 -128 q -28 -416 14 -333 q -48 -452 -40 -442 q -66 -461 -56 -461 q -90 -460 -85 -461 q -94 -453 -94 -459 q -89 -433 -94 -444 q -26 -275 -55 -374 q 27 -71 3 -176 q 82 172 50 35 q 139 383 114 310 l 208 383 m 231 492 q 214 468 223 481 q 195 456 205 456 q 178 481 178 456 q 196 582 178 547 q 250 616 215 616 q 280 608 269 616 q 292 583 292 599 q 282 551 292 567 q 258 520 273 536 q 231 492 243 505 z "},"k":{"ha":545,"x_min":11,"x_max":494,"o":"m 494 86 q 420 14 452 34 q 342 -5 388 -5 q 289 9 307 -5 q 253 61 271 23 q 225 122 250 69 q 200 186 200 176 q 231 214 200 214 q 281 178 259 214 q 386 281 386 208 q 368 329 386 310 q 322 347 350 347 q 235 311 275 347 q 164 220 195 275 q 111 111 133 165 q 64 0 88 57 l 11 0 q 100 309 58 133 l 136 472 q 170 610 147 517 q 225 784 193 703 q 302 921 257 866 q 406 975 347 975 q 452 965 433 975 q 481 935 471 954 q 492 889 492 916 q 477 830 492 865 q 439 762 462 795 q 395 708 417 729 q 358 686 372 686 q 350 694 350 686 q 376 731 350 698 q 419 796 401 764 q 436 864 436 829 q 422 921 436 899 q 386 942 409 942 q 322 888 352 942 q 271 762 292 835 q 233 608 250 688 q 205 472 217 528 q 183 389 195 435 q 161 305 170 343 q 147 241 152 267 q 206 319 174 286 q 278 374 238 353 q 364 395 318 395 q 426 372 401 395 q 450 311 450 349 q 411 223 450 263 q 294 153 371 182 q 306 111 301 127 q 318 82 311 94 q 340 63 326 70 q 380 56 355 56 q 440 62 416 56 q 494 86 464 68 z "},"l":{"ha":386,"x_min":11,"x_max":511,"o":"m 345 94 q 265 20 302 42 q 180 -3 228 -3 q 94 -1 151 -3 q 11 0 38 0 l 25 36 q 101 309 53 108 q 188 646 149 511 q 286 882 227 781 q 425 983 346 983 q 488 963 465 983 q 511 908 511 943 q 483 811 511 863 q 416 723 454 760 q 361 686 379 686 q 353 697 353 686 q 382 728 353 696 q 433 800 411 760 q 456 884 456 840 q 443 937 456 918 q 406 956 431 956 q 317 856 359 956 q 263 675 288 787 q 219 469 238 564 q 166 271 199 375 q 78 64 134 167 l 127 64 q 345 94 271 64 z "},"m":{"ha":806,"x_min":11,"x_max":775,"o":"m 775 106 q 686 23 723 45 q 597 0 649 0 q 472 5 533 0 q 524 84 499 46 q 567 156 548 121 q 602 231 587 191 q 616 300 616 270 q 564 364 616 364 q 455 297 500 364 q 380 147 409 230 l 330 0 l 256 0 l 317 195 q 342 311 342 289 q 332 355 342 340 q 302 370 321 370 q 134 153 217 370 l 81 0 l 11 0 q 54 120 37 71 q 85 221 71 170 q 108 331 99 273 q 117 450 117 388 q 172 311 172 393 l 172 300 q 250 379 214 355 q 328 403 286 403 q 395 371 374 403 q 416 292 416 339 q 597 400 504 400 q 651 390 629 400 q 687 360 674 379 q 700 314 700 340 q 685 252 700 284 q 646 188 669 219 q 593 122 623 156 q 545 66 564 88 q 632 68 599 66 q 703 79 666 70 q 775 106 739 87 z "},"n":{"ha":545,"x_min":11,"x_max":517,"o":"m 517 92 q 429 16 469 35 q 330 -3 389 -3 q 284 -1 317 -3 q 231 0 251 0 q 309 118 274 58 q 362 224 345 178 q 380 297 380 269 q 366 337 380 322 q 328 353 351 353 q 136 147 220 353 l 75 0 l 11 0 q 84 210 60 100 q 109 433 109 319 q 154 372 141 404 q 167 292 167 340 l 167 272 q 367 397 267 397 q 456 314 456 397 q 431 232 456 275 q 371 146 406 189 q 300 61 336 104 q 420 66 374 61 q 517 92 466 71 z "},"o":{"ha":545,"x_min":41,"x_max":475,"o":"m 475 272 q 431 124 475 197 q 325 20 388 51 q 195 -8 271 -8 q 83 23 124 -8 q 41 106 41 54 q 81 245 41 175 q 185 361 121 316 q 319 406 250 406 q 435 371 395 406 q 475 272 475 337 m 406 208 q 395 285 406 247 q 359 349 385 323 q 294 375 334 375 q 205 343 247 375 q 139 262 163 311 q 114 167 114 214 q 142 77 114 101 q 248 53 170 53 q 337 67 304 53 q 386 115 370 81 q 406 208 401 149 z "},"p":{"ha":561,"x_min":-75,"x_max":547,"o":"m 297 675 q 178 322 218 515 q 263 389 231 373 q 342 406 295 406 q 416 388 385 406 q 466 338 448 370 q 484 267 484 307 q 459 179 484 216 q 399 112 435 142 q 334 58 363 82 q 378 57 351 58 q 416 56 406 56 q 547 94 486 56 q 484 33 513 52 q 422 6 456 13 q 330 0 388 0 q 127 -5 262 0 q 168 26 149 16 q 207 41 186 37 q 246 50 228 46 q 278 61 264 54 q 348 101 317 73 q 395 167 378 129 q 411 244 411 205 q 400 313 411 284 q 366 357 389 342 q 314 372 344 372 q 235 343 268 372 q 180 269 201 315 q 150 190 158 224 q 125 83 141 156 l 94 -66 q 17 -341 60 -229 q -56 -453 -26 -453 q -75 -441 -75 -453 q -66 -422 -75 -436 q -37 -336 -52 -390 q -16 -252 -22 -281 q 5 -150 -9 -223 q 28 -36 20 -77 l 66 142 q 118 361 95 275 q 185 535 140 447 q 297 675 229 624 z "},"q":{"ha":525,"x_min":41,"x_max":461,"o":"m 350 114 q 307 70 330 93 q 261 28 285 47 q 211 0 237 10 q 155 -11 184 -11 q 41 94 41 -11 q 68 199 41 144 q 141 301 95 254 q 243 379 186 349 q 350 408 299 408 q 433 381 405 408 q 461 300 461 353 q 447 206 461 269 q 408 66 433 143 l 370 -66 q 325 -217 338 -171 q 307 -294 312 -264 q 302 -355 302 -324 q 314 -425 302 -383 q 319 -439 319 -436 q 313 -448 319 -442 q 302 -453 307 -453 q 272 -402 288 -453 q 256 -302 256 -351 q 264 -205 256 -256 q 287 -96 272 -155 q 318 12 302 -38 q 350 114 334 61 m 397 317 q 381 363 397 347 q 336 380 366 380 q 231 342 281 380 q 148 247 180 304 q 117 136 117 190 q 135 79 117 97 q 192 61 153 61 q 270 77 241 61 q 330 136 300 93 q 379 225 360 174 q 397 317 397 276 z "},"r":{"ha":456,"x_min":56,"x_max":414,"o":"m 358 386 q 275 261 302 322 q 248 136 248 199 q 258 78 248 95 q 294 61 269 61 q 335 67 316 61 q 375 85 355 74 q 414 106 395 96 q 336 22 374 52 q 264 -8 298 -8 q 201 20 224 -8 q 178 97 178 49 q 206 201 178 138 q 278 322 234 264 l 144 314 q 109 240 129 270 q 58 186 88 210 q 97 314 93 258 q 56 355 56 318 q 71 398 56 380 q 109 416 87 416 q 137 409 127 416 q 155 380 147 401 l 358 386 z "},"s":{"ha":475,"x_min":56,"x_max":444,"o":"m 444 106 q 380 38 408 60 q 315 8 352 17 q 214 0 277 0 l 56 0 l 83 58 l 134 58 q 237 76 197 58 q 278 144 278 93 q 269 174 278 161 q 240 209 260 188 q 209 244 220 230 q 186 283 197 259 q 153 248 172 270 q 115 210 134 227 q 78 186 97 193 q 177 340 118 260 q 281 419 237 419 q 319 395 319 419 q 311 376 319 382 q 285 363 302 370 q 259 349 267 356 q 250 330 250 342 q 257 306 250 317 q 283 272 264 295 q 312 228 302 248 q 322 186 322 208 q 305 116 322 150 q 258 61 288 82 q 289 58 275 58 q 364 70 332 58 q 444 106 396 81 z "},"t":{"ha":386,"x_min":11,"x_max":358,"o":"m 358 386 l 350 345 l 183 347 q 72 66 147 184 l 136 66 q 239 74 196 66 q 328 106 281 81 l 328 97 q 281 47 302 71 q 235 12 259 24 q 172 0 211 0 l 11 0 l 17 22 q 46 107 35 68 q 66 187 57 146 q 83 263 75 229 q 106 347 92 297 l 50 347 l 61 392 l 117 392 q 157 517 132 439 q 210 645 182 596 q 267 694 237 694 q 278 689 278 694 q 275 681 278 684 q 263 639 271 662 q 247 590 256 616 q 226 516 238 564 q 197 392 214 468 l 358 386 z "},"u":{"ha":561,"x_min":41,"x_max":533,"o":"m 419 383 q 422 348 419 370 q 425 309 425 326 q 418 225 425 264 q 395 144 412 186 q 355 61 379 102 q 425 64 399 61 q 478 77 450 66 q 533 109 507 87 q 466 23 498 49 q 392 -3 433 -3 q 337 17 353 -3 q 300 89 322 37 q 216 15 250 37 q 150 -8 182 -8 q 95 9 120 -8 q 56 55 71 26 q 41 117 41 83 q 58 191 41 151 q 90 270 74 231 q 106 345 106 310 q 104 376 106 363 q 98 407 102 389 q 92 441 95 425 q 141 378 124 412 q 158 311 158 345 q 152 264 158 288 q 136 209 146 239 q 120 156 125 179 q 114 109 114 132 q 125 70 114 81 q 164 58 137 58 q 269 92 229 58 q 328 176 309 125 q 356 284 347 227 q 370 383 364 341 l 419 383 z "},"v":{"ha":561,"x_min":41,"x_max":525,"o":"m 522 397 q 525 378 525 389 q 519 353 525 364 l 419 353 l 419 317 q 392 191 419 250 q 302 66 364 132 q 238 10 258 22 q 186 -3 218 -3 q 111 34 144 -3 q 60 120 78 70 q 41 211 41 170 q 106 397 41 308 l 180 397 q 100 161 100 280 q 106 97 100 117 q 131 70 113 77 q 192 64 150 64 q 280 88 239 64 q 346 153 321 112 q 370 244 370 195 q 330 353 370 298 l 267 353 q 278 397 267 379 l 522 397 z "},"w":{"ha":772,"x_min":41,"x_max":736,"o":"m 736 383 l 728 342 l 625 342 q 597 165 625 242 q 506 42 569 87 q 342 -3 443 -3 q 331 -1 341 -3 q 311 0 321 0 q 347 109 347 54 q 330 189 347 149 q 233 58 292 125 q 125 -8 173 -8 q 84 11 104 -8 q 53 60 64 29 q 41 125 41 90 q 144 383 41 250 l 220 383 q 109 122 109 254 q 155 58 109 58 q 222 91 185 58 q 286 166 260 123 q 311 236 311 209 q 309 270 311 248 q 306 302 306 292 q 325 365 306 337 q 375 406 345 393 q 367 345 367 363 q 375 301 367 328 q 390 255 382 275 q 403 215 397 235 q 408 175 408 195 q 397 115 408 146 q 364 61 385 84 q 425 58 397 58 q 506 81 470 58 q 561 143 541 103 q 581 233 581 183 q 572 301 581 278 q 543 333 564 323 q 484 342 522 342 l 484 355 q 494 383 484 369 l 736 383 z "},"x":{"ha":525,"x_min":11,"x_max":492,"o":"m 492 119 q 429 31 471 65 q 339 -3 386 -3 q 274 18 298 -3 q 239 67 250 38 q 220 147 229 97 q 152 78 187 115 q 78 9 116 41 q 22 -22 41 -22 q 15 -19 18 -22 q 11 -8 11 -15 q 41 22 11 -2 q 127 105 81 54 q 203 203 173 156 q 158 307 189 263 q 69 392 127 351 l 69 400 q 100 403 83 403 q 198 366 157 403 q 258 264 240 329 q 311 318 287 288 q 353 365 335 349 q 402 391 370 381 q 492 400 433 400 q 471 347 492 359 q 406 331 451 335 q 347 322 361 327 q 275 220 305 275 q 288 142 281 195 q 300 64 296 90 q 368 66 343 64 q 407 73 392 68 q 450 96 422 79 q 492 122 479 114 l 492 119 z "},"y":{"ha":509,"x_min":-75,"x_max":436,"o":"m 436 389 q 412 183 431 300 q 359 -52 393 66 q 278 -272 326 -171 q 172 -422 230 -372 q 125 -451 149 -444 q 58 -458 102 -458 q -45 -447 -15 -458 q -75 -411 -75 -436 q -36 -326 -75 -387 q 25 -264 3 -264 q 31 -269 31 -264 q 15 -299 31 -279 q -7 -331 -1 -320 q -14 -358 -14 -341 q 119 -408 -14 -408 q 160 -392 144 -408 q 193 -336 176 -376 q 248 -183 210 -296 q 330 119 298 -30 q 266 53 286 73 q 214 16 246 34 q 147 -3 182 -3 q 73 26 99 -3 q 47 106 47 54 q 65 184 47 141 q 99 271 82 228 q 117 347 117 314 q 104 401 117 368 q 89 447 92 434 q 143 390 123 427 q 164 314 164 354 q 139 208 164 275 q 114 106 114 140 q 129 70 114 81 q 178 58 144 58 q 263 92 220 58 q 330 180 306 126 q 370 389 366 251 l 436 389 z "},"z":{"ha":525,"x_min":11,"x_max":475,"o":"m 475 403 q 458 380 459 382 q 388 300 422 345 q 317 209 353 256 q 245 130 280 162 q 161 69 210 97 q 220 68 185 69 q 269 66 256 66 q 334 70 305 66 q 398 81 363 73 q 475 106 433 90 q 419 40 444 62 q 361 9 394 18 q 281 0 328 0 l 41 0 q 11 3 20 0 l 11 11 q 100 69 51 43 q 176 123 145 94 q 247 203 208 153 q 307 278 286 254 q 370 336 328 302 q 309 334 345 334 q 236 336 285 334 q 164 339 187 339 q 100 336 127 339 l 97 342 q 151 387 115 372 q 244 403 188 403 q 318 399 270 403 q 389 395 366 395 q 475 403 408 395 z "},"{":{"ha":720,"x_min":205,"x_max":745,"o":"m 205 450 l 208 467 q 310 484 276 470 q 362 533 345 497 q 395 647 380 568 q 443 865 424 802 q 493 961 462 929 q 573 1001 525 992 q 745 1017 622 1010 l 736 989 q 626 978 666 987 q 561 944 585 968 q 523 883 536 920 q 489 764 509 846 q 471 673 481 726 q 446 578 460 620 q 402 505 431 537 q 328 461 374 473 l 325 456 q 395 361 395 439 q 386 286 395 325 q 358 171 378 248 q 332 57 339 94 q 325 -17 325 20 q 341 -75 325 -54 q 394 -105 357 -96 q 492 -114 430 -114 l 486 -142 q 455 -143 477 -142 q 422 -144 433 -144 q 297 -120 345 -144 q 250 -22 250 -96 q 259 60 250 20 q 289 172 268 100 q 320 286 311 243 q 330 370 330 329 q 303 429 330 412 q 205 450 275 446 z "},"|":{"ha":720,"x_min":380,"x_max":439,"o":"m 380 925 l 439 925 l 439 -233 l 380 -233 l 380 925 z "},"}":{"ha":720,"x_min":66,"x_max":614,"o":"m 614 467 l 608 450 q 518 435 553 447 q 464 397 484 423 q 436 330 444 372 q 397 109 414 206 q 349 -41 379 11 q 255 -118 319 -94 q 66 -142 191 -142 l 72 -114 q 188 -98 145 -113 q 255 -57 231 -84 q 291 11 278 -29 q 322 131 304 52 q 338 210 323 137 q 370 329 353 282 q 416 411 386 376 q 492 456 446 446 l 492 461 q 422 553 422 477 q 428 611 422 585 q 452 703 434 637 q 478 806 471 768 q 486 880 486 844 q 472 944 486 922 q 421 977 457 966 q 317 989 385 987 l 322 1017 l 395 1017 q 515 995 471 1017 q 558 903 558 973 q 549 814 558 855 q 513 674 539 774 q 486 545 486 574 q 517 488 486 507 q 614 467 548 469 z "},"~":{"ha":720,"x_min":103,"x_max":720,"o":"m 700 547 l 720 536 q 660 469 694 498 q 590 424 627 440 q 522 408 553 408 q 465 416 494 408 q 394 438 435 424 q 322 461 353 453 q 258 469 292 469 q 190 450 216 469 q 119 383 164 431 l 103 395 q 300 525 197 525 q 358 518 331 525 q 431 495 385 511 q 500 473 477 479 q 550 467 524 467 q 700 547 637 467 z "},"":{"ha":859,"x_min":275,"x_max":545,"o":"m 275 397 q 314 491 275 452 q 408 530 353 530 q 477 513 446 530 q 527 464 509 495 q 545 397 545 433 q 504 303 545 342 q 408 264 464 264 q 315 304 355 264 q 275 397 275 344 z "},"‚":{"ha":300,"x_min":0,"x_max":0,"o":""},"ƒ":{"ha":300,"x_min":0,"x_max":0,"o":""},"„":{"ha":300,"x_min":0,"x_max":0,"o":""},"…":{"ha":300,"x_min":0,"x_max":0,"o":""},"†":{"ha":300,"x_min":0,"x_max":0,"o":""},"‡":{"ha":300,"x_min":0,"x_max":0,"o":""},"‰":{"ha":300,"x_min":0,"x_max":0,"o":""},"Š":{"ha":300,"x_min":0,"x_max":0,"o":""},"‹":{"ha":720,"x_min":125,"x_max":697,"o":"m 697 844 l 697 803 l 239 503 l 697 197 l 697 86 l 125 467 l 125 472 l 697 844 z "},"Œ":{"ha":300,"x_min":0,"x_max":0,"o":""},"‘":{"ha":300,"x_min":220,"x_max":353,"o":"m 350 945 l 353 933 q 292 884 322 918 q 261 822 261 850 q 267 814 261 814 q 269 817 269 814 l 281 819 q 292 822 281 822 q 312 813 304 822 q 319 789 319 804 q 302 747 319 766 q 261 728 284 728 q 231 742 242 728 q 220 778 220 756 q 236 845 220 812 q 282 904 252 878 q 350 945 312 930 z "},"’":{"ha":370,"x_min":111,"x_max":317,"o":"m 111 684 q 198 749 172 721 q 228 831 224 778 l 220 831 q 193 841 203 831 q 183 869 183 852 q 206 925 183 900 q 258 950 229 950 q 301 933 286 950 q 317 889 317 916 q 255 762 317 815 q 111 684 194 709 z "},"“":{"ha":545,"x_min":111,"x_max":500,"o":"m 317 950 q 229 884 255 912 q 200 803 203 857 q 232 794 220 803 q 244 766 244 785 q 234 726 244 745 q 206 695 223 707 q 170 684 189 684 q 127 701 142 684 q 111 747 111 718 q 174 872 111 819 q 317 950 237 926 m 500 950 q 440 910 464 928 q 402 866 416 892 q 386 803 389 840 q 423 794 415 803 q 431 766 431 785 q 420 726 431 745 q 392 695 410 707 q 353 684 374 684 q 312 701 328 684 q 297 747 297 718 q 328 838 297 797 q 406 908 359 880 q 500 950 453 937 z "},"”":{"ha":545,"x_min":111,"x_max":500,"o":"m 297 684 q 381 750 355 720 q 411 831 408 780 l 403 831 q 370 869 370 831 q 392 925 370 901 q 444 950 414 950 q 485 933 470 950 q 500 889 500 916 q 470 797 500 838 q 394 727 439 755 q 297 684 349 700 m 111 684 q 198 749 172 721 q 228 831 224 778 l 220 831 q 193 841 203 831 q 183 869 183 852 q 206 925 183 900 q 258 950 229 950 q 301 933 286 950 q 317 889 317 916 q 255 762 317 815 q 111 684 194 709 z "},"–":{"ha":561,"x_min":89,"x_max":558,"o":"m 558 264 l 533 220 l 89 220 l 117 264 l 558 264 z "},"—":{"ha":911,"x_min":33,"x_max":922,"o":"m 33 322 l 41 367 l 922 367 l 914 322 l 33 322 z "},"™":{"ha":300,"x_min":0,"x_max":0,"o":""},"š":{"ha":300,"x_min":0,"x_max":0,"o":""},"›":{"ha":720,"x_min":125,"x_max":697,"o":"m 125 86 l 125 127 l 581 428 l 125 730 l 125 844 l 697 464 l 697 456 l 125 86 z "},"œ":{"ha":300,"x_min":0,"x_max":0,"o":""},"Ÿ":{"ha":667,"x_min":8,"x_max":625,"o":"m 367 392 q 416 389 379 392 q 478 386 454 386 q 494 387 482 386 q 511 389 507 389 q 515 358 513 385 q 519 314 518 331 q 499 184 515 241 q 447 61 484 127 q 516 64 490 61 q 570 77 542 66 q 625 109 599 87 q 558 23 590 49 q 484 -3 526 -3 q 422 25 448 -3 q 397 86 397 53 q 399 96 397 89 q 400 106 400 102 q 419 169 406 130 q 441 242 433 209 q 456 336 449 276 l 447 336 q 418 338 439 336 q 386 339 396 339 l 364 339 q 253 278 300 325 q 239 256 245 270 q 233 233 233 241 q 246 193 233 205 q 294 180 258 180 q 350 205 328 205 l 361 205 q 373 201 369 205 q 378 192 378 197 q 372 178 378 189 q 305 120 363 168 q 231 58 247 73 q 158 10 188 23 q 92 -3 128 -3 q 30 14 47 -3 q 8 81 12 31 q 97 53 40 53 q 145 61 123 53 q 184 83 166 69 q 225 119 202 96 q 269 161 248 141 q 183 233 183 165 q 211 300 187 269 q 284 365 239 337 q 367 392 329 392 z "},"¡":{"ha":456,"x_min":275,"x_max":545,"o":"m 275 397 q 314 491 275 452 q 408 530 353 530 q 477 513 446 530 q 527 464 509 495 q 545 397 545 433 q 504 303 545 342 q 408 264 464 264 q 315 304 355 264 q 275 397 275 344 z "},"¢":{"ha":492,"x_min":275,"x_max":545,"o":"m 275 397 q 314 491 275 452 q 408 530 353 530 q 477 513 446 530 q 527 464 509 495 q 545 397 545 433 q 504 303 545 342 q 408 264 464 264 q 315 304 355 264 q 275 397 275 344 z "},"£":{"ha":1034,"x_min":275,"x_max":545,"o":"m 275 397 q 314 491 275 452 q 408 530 353 530 q 477 513 446 530 q 527 464 509 495 q 545 397 545 433 q 504 303 545 342 q 408 264 464 264 q 315 304 355 264 q 275 397 275 344 z "},"¤":{"ha":964,"x_min":161,"x_max":892,"o":"m 164 147 l 289 269 q 228 372 245 327 q 211 478 211 417 q 229 574 211 528 q 286 681 246 621 l 161 806 l 195 839 l 317 714 q 525 791 415 791 q 626 774 581 791 q 733 714 671 758 l 859 839 l 892 806 l 766 681 q 823 575 806 620 q 839 475 839 531 q 823 377 839 420 q 764 275 806 334 l 892 147 l 859 114 l 730 241 q 630 182 678 201 q 525 164 582 164 q 425 181 471 164 q 322 239 380 198 l 197 114 l 164 147 m 778 475 q 759 574 778 528 q 705 656 741 620 q 624 711 670 692 q 525 730 578 730 q 399 696 458 730 q 306 603 340 662 q 272 475 272 543 q 306 351 272 410 q 398 259 340 293 q 522 225 456 225 q 649 259 590 225 q 743 350 708 292 q 778 475 778 407 z "},"¥":{"ha":875,"x_min":275,"x_max":545,"o":"m 275 397 q 314 491 275 452 q 408 530 353 530 q 477 513 446 530 q 527 464 509 495 q 545 397 545 433 q 504 303 545 342 q 408 264 464 264 q 315 304 355 264 q 275 397 275 344 z "},"¦":{"ha":720,"x_min":380,"x_max":439,"o":"m 380 925 l 439 925 l 439 469 l 380 469 l 380 925 m 380 214 l 439 214 l 439 -233 l 380 -233 l 380 214 z "},"§":{"ha":720,"x_min":119,"x_max":697,"o":"m 361 659 q 305 727 321 698 q 289 791 289 756 q 325 905 289 852 q 422 990 361 958 q 553 1022 484 1022 q 629 1006 597 1022 q 680 963 662 991 q 697 897 697 935 q 680 839 697 861 q 636 817 663 817 q 614 824 623 817 q 606 842 606 831 q 622 885 606 858 q 639 930 639 912 q 614 975 639 958 q 545 991 589 991 q 417 949 467 991 q 367 842 367 906 q 401 752 367 787 q 510 666 435 718 q 622 574 585 615 q 659 472 659 532 q 601 332 659 393 q 453 216 543 272 q 505 145 491 174 q 519 78 519 116 q 485 -34 519 18 q 391 -118 450 -87 q 264 -150 332 -150 q 188 -135 220 -150 q 137 -92 155 -120 q 119 -25 119 -64 q 136 36 119 13 q 180 58 153 58 q 205 51 196 58 q 214 28 214 43 q 197 -13 214 12 q 180 -53 180 -38 q 272 -122 180 -122 q 400 -82 349 -122 q 450 20 450 -43 q 413 115 450 73 q 302 212 375 157 q 192 311 229 268 q 155 411 155 354 q 213 545 155 487 q 361 659 270 602 m 378 639 q 264 546 297 587 q 231 456 231 505 q 291 346 231 401 q 436 236 352 291 q 548 323 515 281 q 581 419 581 365 q 561 490 581 457 q 512 547 541 523 q 446 594 483 571 q 378 639 410 618 z "},"¨":{"ha":720,"x_min":275,"x_max":545,"o":"m 275 397 q 314 491 275 452 q 408 530 353 530 q 477 513 446 530 q 527 464 509 495 q 545 397 545 433 q 504 303 545 342 q 408 264 464 264 q 315 304 355 264 q 275 397 275 344 z "},"©":{"ha":1120,"x_min":139,"x_max":1103,"o":"m 828 728 l 828 570 l 803 570 q 745 663 789 629 q 636 697 701 697 q 502 633 553 697 q 450 467 450 570 q 473 342 450 394 q 541 263 496 290 q 647 236 585 236 q 751 264 705 236 q 839 353 798 293 l 839 306 q 636 203 758 203 q 500 235 560 203 q 408 324 441 267 q 375 456 375 381 q 407 595 375 534 q 499 690 439 656 q 633 725 558 725 q 713 708 667 725 q 778 692 759 692 q 800 720 793 692 q 803 728 803 722 l 828 728 m 623 -20 q 436 18 524 -20 q 281 123 349 55 q 176 279 213 192 q 139 464 139 367 q 204 706 139 595 q 381 881 269 817 q 623 945 492 945 q 863 880 753 945 q 1038 705 974 816 q 1103 464 1103 594 q 1038 222 1103 333 q 863 45 973 111 q 623 -20 753 -20 m 623 22 q 791 56 711 22 q 933 152 871 90 q 1030 293 996 213 q 1064 464 1064 372 q 1029 635 1064 555 q 933 777 995 715 q 792 871 872 838 q 623 905 711 905 q 401 846 503 905 q 240 686 299 787 q 180 467 180 585 q 240 246 180 348 q 401 83 299 144 q 623 22 503 22 z "},"ª":{"ha":456,"x_min":275,"x_max":545,"o":"m 275 397 q 314 491 275 452 q 408 530 353 530 q 477 513 446 530 q 527 464 509 495 q 545 397 545 433 q 504 303 545 342 q 408 264 464 264 q 315 304 355 264 q 275 397 275 344 z "},"«":{"ha":456,"x_min":114,"x_max":444,"o":"m 114 264 l 125 269 q 189 307 165 286 q 241 361 212 328 q 290 409 271 395 q 342 428 310 424 q 262 324 304 368 q 175 256 220 280 q 209 214 195 239 q 232 158 222 188 q 253 100 242 129 q 278 50 264 71 q 229 83 247 60 q 192 151 212 106 q 157 221 172 197 q 114 264 142 246 m 214 258 q 294 311 268 286 q 345 366 321 336 q 388 410 368 397 q 444 428 407 423 q 357 319 404 366 q 269 253 310 273 q 303 211 289 235 q 330 157 317 186 q 353 101 342 128 q 378 50 364 74 q 317 112 339 73 q 272 194 295 152 q 214 258 249 237 z "},"¬":{"ha":720,"x_min":114,"x_max":705,"o":"m 600 0 l 600 325 l 114 325 l 114 372 l 705 372 l 705 0 l 600 0 z "},"­":{"ha":439,"x_min":111,"x_max":395,"o":"m 395 264 l 372 220 l 111 220 l 139 264 l 395 264 z "},"®":{"ha":1120,"x_min":139,"x_max":1103,"o":"m 794 211 l 656 453 l 539 453 l 539 289 q 548 247 539 258 q 583 236 556 236 l 608 236 l 608 211 l 408 211 l 408 236 q 451 239 439 236 q 469 252 464 241 q 475 289 475 262 l 475 642 q 465 686 475 678 q 422 694 456 694 l 403 694 l 403 717 l 611 717 q 817 578 817 717 q 795 505 817 532 q 720 456 773 477 l 825 272 q 852 243 838 251 q 892 236 867 236 l 892 211 l 794 211 m 539 475 l 608 475 q 711 495 675 475 q 747 578 747 516 q 705 668 747 647 q 589 689 663 689 l 539 689 l 539 475 m 623 -20 q 436 18 524 -20 q 281 123 349 55 q 176 279 213 192 q 139 464 139 367 q 204 706 139 595 q 381 881 269 817 q 623 945 492 945 q 863 880 753 945 q 1038 705 974 816 q 1103 464 1103 594 q 1038 222 1103 333 q 863 45 973 111 q 623 -20 753 -20 m 623 22 q 791 56 711 22 q 933 152 871 90 q 1030 293 996 213 q 1064 464 1064 372 q 1029 635 1064 555 q 933 777 995 715 q 792 871 872 838 q 623 905 711 905 q 401 846 503 905 q 240 686 299 787 q 180 467 180 585 q 240 246 180 348 q 401 83 299 144 q 623 22 503 22 z "},"¯":{"ha":720,"x_min":239,"x_max":550,"o":"m 239 583 l 256 628 l 550 628 l 530 583 l 239 583 z "},"°":{"ha":647,"x_min":228,"x_max":525,"o":"m 358 903 q 378 905 364 905 q 482 863 439 905 q 525 761 525 821 q 482 660 525 703 q 380 616 439 616 q 303 637 338 616 q 248 691 268 657 q 228 764 228 725 q 264 857 228 818 q 358 903 301 897 m 256 778 q 253 761 253 775 q 290 677 253 713 q 378 642 327 642 q 464 676 427 642 q 500 761 500 711 q 484 821 500 793 q 439 864 467 848 q 378 880 411 880 q 320 867 347 880 q 276 831 293 854 q 256 778 260 808 z "},"±":{"ha":720,"x_min":100,"x_max":720,"o":"m 100 511 l 386 511 l 386 775 l 433 775 l 433 511 l 720 511 l 720 464 l 433 464 l 433 200 l 386 200 l 386 464 l 100 464 l 100 511 m 100 139 l 720 139 l 720 92 l 100 92 l 100 139 z "},"²":{"ha":403,"x_min":275,"x_max":545,"o":"m 275 397 q 314 491 275 452 q 408 530 353 530 q 477 513 446 530 q 527 464 509 495 q 545 397 545 433 q 504 303 545 342 q 408 264 464 264 q 315 304 355 264 q 275 397 275 344 z "},"³":{"ha":422,"x_min":275,"x_max":545,"o":"m 275 397 q 314 491 275 452 q 408 530 353 530 q 477 513 446 530 q 527 464 509 495 q 545 397 545 433 q 504 303 545 342 q 408 264 464 264 q 315 304 355 264 q 275 397 275 344 z "},"´":{"ha":720,"x_min":317,"x_max":472,"o":"m 317 528 l 317 533 q 348 604 336 587 q 395 650 359 621 q 421 675 410 664 q 444 694 432 686 q 472 705 456 703 q 415 606 449 644 q 317 528 380 568 z "},"µ":{"ha":789,"x_min":172,"x_max":786,"o":"m 689 636 l 689 158 q 693 95 689 117 q 709 64 698 73 q 742 56 720 56 q 786 72 759 56 l 786 53 q 686 -14 697 -14 q 616 109 625 -14 q 495 7 541 33 q 395 -20 449 -20 q 296 10 334 -20 q 239 106 258 40 q 247 -38 239 57 q 256 -189 256 -133 q 244 -242 256 -223 q 211 -261 232 -261 q 183 -243 195 -261 q 172 -197 172 -224 q 180 -119 172 -174 q 198 0 190 -71 q 211 143 206 70 q 218 280 216 217 q 220 403 220 343 l 220 636 l 294 636 l 294 239 q 327 87 294 136 q 431 39 360 39 q 529 65 490 39 q 614 158 568 92 l 614 636 l 689 636 z "},"¶":{"ha":772,"x_min":167,"x_max":872,"o":"m 872 925 l 867 897 q 789 892 814 897 q 753 875 764 887 q 737 842 742 863 q 725 789 732 821 l 550 -5 q 539 -69 539 -46 q 603 -106 539 -106 l 639 -106 l 633 -134 l 472 -134 l 700 897 l 564 897 l 336 -134 l 167 -134 l 175 -106 l 208 -106 q 275 -93 252 -106 q 309 -36 297 -80 q 314 -15 313 -22 q 317 -5 316 -8 l 425 492 q 330 496 371 492 q 253 518 288 501 q 196 568 217 534 q 175 656 175 601 q 201 767 175 711 q 272 861 228 823 q 373 914 318 903 q 511 925 429 925 l 872 925 m 514 897 l 486 897 q 392 889 431 897 q 325 852 354 882 q 264 759 289 819 q 239 647 239 700 q 255 579 239 604 q 298 544 271 555 q 355 530 324 533 q 433 528 386 528 l 514 897 z "},"∙":{"ha":561,"x_min":272,"x_max":378,"o":"m 378 211 q 360 169 376 185 q 322 153 345 153 q 286 168 299 153 q 272 208 272 183 q 281 239 272 224 q 305 263 290 254 q 336 272 320 272 q 368 253 357 272 q 378 211 378 234 z "},"¸":{"ha":720,"x_min":275,"x_max":545,"o":"m 275 397 q 314 491 275 452 q 408 530 353 530 q 477 513 446 530 q 527 464 509 495 q 545 397 545 433 q 504 303 545 342 q 408 264 464 264 q 315 304 355 264 q 275 397 275 344 z "},"¹":{"ha":281,"x_min":275,"x_max":545,"o":"m 275 397 q 314 491 275 452 q 408 530 353 530 q 477 513 446 530 q 527 464 509 495 q 545 397 545 433 q 504 303 545 342 q 408 264 464 264 q 315 304 355 264 q 275 397 275 344 z "},"º":{"ha":456,"x_min":81,"x_max":475,"o":"m 475 458 l 467 425 l 81 425 l 89 458 l 475 458 m 408 661 q 386 576 408 615 q 325 514 363 537 q 241 492 287 492 q 174 510 198 492 q 150 561 150 529 q 173 645 150 602 q 236 715 197 688 q 317 742 275 742 q 385 721 361 742 q 408 661 408 700 m 367 623 q 352 692 367 661 q 300 722 336 722 q 247 703 271 722 q 207 655 222 684 q 192 597 192 626 q 209 543 192 557 q 272 528 227 528 q 344 548 323 528 q 367 623 365 569 z "},"»":{"ha":456,"x_min":66,"x_max":408,"o":"m 408 228 l 395 222 q 332 185 356 206 q 281 131 309 164 q 233 82 253 97 q 180 64 213 66 q 257 166 213 121 q 347 236 302 211 q 310 283 321 259 q 279 360 298 307 q 241 439 260 413 q 290 410 273 432 q 328 343 308 388 q 362 273 347 298 q 408 228 378 247 m 297 231 q 236 194 259 216 q 180 137 212 173 q 125 86 148 102 q 66 64 103 71 q 123 138 91 101 q 186 200 155 175 q 241 239 216 225 q 198 290 214 260 q 165 369 183 319 q 136 441 147 419 q 194 380 172 420 q 239 296 216 340 q 297 231 262 253 z "},"¼":{"ha":911,"x_min":275,"x_max":545,"o":"m 275 397 q 314 491 275 452 q 408 530 353 530 q 477 513 446 530 q 527 464 509 495 q 545 397 545 433 q 504 303 545 342 q 408 264 464 264 q 315 304 355 264 q 275 397 275 344 z "},"½":{"ha":875,"x_min":275,"x_max":545,"o":"m 275 397 q 314 491 275 452 q 408 530 353 530 q 477 513 446 530 q 527 464 509 495 q 545 397 545 433 q 504 303 545 342 q 408 264 464 264 q 315 304 355 264 q 275 397 275 344 z "},"¾":{"ha":1050,"x_min":275,"x_max":545,"o":"m 275 397 q 314 491 275 452 q 408 530 353 530 q 477 513 446 530 q 527 464 509 495 q 545 397 545 433 q 504 303 545 342 q 408 264 464 264 q 315 304 355 264 q 275 397 275 344 z "},"¿":{"ha":597,"x_min":275,"x_max":545,"o":"m 275 397 q 314 491 275 452 q 408 530 353 530 q 477 513 446 530 q 527 464 509 495 q 545 397 545 433 q 504 303 545 342 q 408 264 464 264 q 315 304 355 264 q 275 397 275 344 z "},"À":{"ha":1522,"x_min":5,"x_max":1533,"o":"m 1533 361 q 1303 314 1428 314 q 1272 212 1295 290 q 1223 64 1249 134 q 1167 -63 1198 -7 q 1114 -119 1137 -119 q 1097 -111 1105 -119 q 1165 90 1140 -9 q 1214 322 1190 189 q 1059 348 1170 330 q 942 367 949 366 q 829 193 882 261 q 712 80 777 124 q 563 17 648 37 q 355 -3 478 -3 q 163 14 241 -3 q 45 62 85 30 q 5 139 5 94 q 30 212 5 176 q 100 280 55 248 q 208 339 146 313 q 347 386 271 366 q 745 439 533 439 q 939 428 822 439 q 1008 586 966 486 q 1191 833 1076 742 q 1464 925 1305 925 q 1492 923 1473 925 q 1533 920 1512 922 q 1451 814 1485 877 q 1391 677 1416 752 q 1348 512 1367 602 q 1320 378 1329 422 q 1381 368 1356 370 q 1458 364 1407 366 q 1533 361 1508 363 m 1231 392 q 1234 404 1232 396 q 1236 414 1235 411 q 1278 574 1267 535 q 1312 673 1289 612 q 1371 793 1336 734 q 1450 895 1406 851 q 1381 882 1413 892 q 1305 847 1350 871 q 1199 770 1249 817 q 1109 668 1149 724 q 1038 557 1068 611 q 970 425 1008 503 l 1231 392 m 911 372 q 669 392 766 392 q 505 382 592 392 q 347 355 418 372 q 255 325 309 346 q 155 278 202 304 q 72 217 107 252 q 36 144 36 181 q 364 72 36 72 q 548 84 469 72 q 697 127 628 96 q 820 219 766 159 q 911 372 875 279 z "},"Á":{"ha":1208,"x_min":-8,"x_max":1397,"o":"m 489 358 q 448 230 467 273 q 393 150 430 187 q 292 83 355 113 q 372 81 330 81 q 443 82 395 81 q 517 83 491 83 q 670 78 576 83 q 814 72 764 72 q 929 79 894 72 q 977 108 964 87 q 989 175 989 129 q 970 278 989 227 q 925 358 952 330 q 819 410 895 388 q 659 433 743 431 q 586 467 586 437 q 594 489 586 479 q 614 500 603 500 l 639 500 q 805 483 701 500 q 928 458 910 466 q 986 404 959 441 q 1029 317 1013 366 q 1044 220 1044 268 q 1014 111 1044 162 q 936 36 984 59 q 833 3 886 11 q 667 -5 779 -5 q 585 -4 637 -5 q 496 -1 532 -3 q 399 1 459 0 q 311 3 340 3 q -8 -8 202 3 q 66 49 28 35 q 164 73 104 63 q 261 99 224 82 q 325 161 298 116 q 384 289 360 217 q 431 456 408 360 q 469 585 449 528 q 518 697 489 643 q 590 800 547 751 q 692 886 633 849 q 685 885 690 886 q 677 884 680 884 q 545 896 635 884 q 439 908 454 908 l 436 911 q 338 891 374 911 q 286 826 302 871 q 269 705 269 782 q 278 607 269 671 q 286 511 286 544 q 277 475 286 493 q 252 431 269 456 q 231 397 235 406 q 192 681 192 560 q 249 876 192 814 q 428 939 306 939 q 693 932 499 939 q 1098 915 886 925 q 1397 900 1309 905 q 1236 831 1363 870 q 1055 848 1179 833 q 880 869 931 863 q 764 875 829 875 q 648 818 691 858 q 579 714 605 777 q 531 554 553 651 q 489 358 510 456 z "},"Â":{"ha":1086,"x_min":-28,"x_max":1055,"o":"m 786 494 q 908 458 878 477 q 954 421 932 446 q 991 363 975 396 q 1016 294 1008 330 q 1025 220 1025 258 q 995 111 1025 162 q 917 36 964 59 q 814 3 867 11 q 647 -5 760 -5 q 565 -4 617 -5 q 476 -1 513 -3 q 380 1 439 0 q 292 3 320 3 q 219 2 256 3 q 103 -2 182 1 q -28 -8 25 -5 q 46 49 8 35 q 144 73 83 63 q 242 99 205 82 q 306 161 279 116 q 368 315 345 222 q 418 512 391 408 q 497 688 446 616 q 650 800 549 760 q 592 715 617 760 q 547 620 567 671 q 511 517 527 570 l 469 358 q 429 230 447 273 q 373 150 410 187 q 272 83 336 113 q 353 81 311 81 q 424 82 376 81 q 497 83 471 83 q 651 78 557 83 q 794 72 745 72 q 910 79 875 72 q 958 108 945 87 q 970 175 970 129 q 951 278 970 227 q 905 358 933 329 q 799 410 875 388 q 639 433 724 431 q 567 467 567 437 q 575 488 567 477 q 595 500 583 498 q 774 519 692 504 q 918 580 856 534 q 981 711 981 627 q 886 843 981 798 q 614 889 791 889 q 483 882 547 889 q 368 861 418 874 q 286 828 319 847 q 239 733 239 800 q 242 685 239 715 q 249 626 245 655 q 256 572 254 596 q 258 525 258 549 q 205 395 258 462 l 167 631 q 158 733 158 707 q 182 815 158 787 q 267 864 206 844 q 400 898 325 882 q 555 922 475 913 q 697 930 635 930 q 888 908 806 930 q 1012 843 969 885 q 1055 742 1055 800 q 1016 624 1055 674 q 915 543 976 574 q 786 494 854 512 z "},"Ã":{"ha":1383,"x_min":-117,"x_max":1486,"o":"m 525 930 q 427 910 463 930 q 374 846 391 890 q 358 725 358 801 q 367 627 358 691 q 375 530 375 563 q 366 494 375 511 q 342 452 357 476 q 319 416 326 429 q 281 700 281 581 q 338 895 281 832 q 517 958 396 958 q 782 951 588 958 q 1186 935 975 945 q 1486 920 1398 924 q 1325 850 1455 892 q 1215 859 1276 852 q 1081 876 1153 866 q 959 890 1009 885 q 852 895 909 895 q 706 801 759 873 q 628 627 652 730 q 578 345 603 524 q 538 161 567 269 q 467 -50 509 53 q 405 -158 437 -118 q 332 -217 372 -199 q 239 -236 291 -236 q 107 -222 195 -236 q -31 -208 20 -208 l -117 -208 q 86 -144 -36 -144 q 135 -148 110 -144 q 188 -158 160 -152 q 248 -170 216 -164 q 302 -175 279 -175 q 357 -163 336 -175 q 392 -120 378 -151 q 422 -31 407 -90 q 471 204 443 56 q 517 456 499 353 q 568 635 531 536 q 664 812 606 735 q 794 905 722 888 l 783 905 q 644 918 740 905 q 528 930 548 930 l 525 930 z "},"Ä":{"ha":1261,"x_min":8,"x_max":1181,"o":"m 139 416 q 110 567 119 503 q 100 700 100 631 q 158 895 100 832 q 336 958 216 958 q 642 877 490 958 q 914 674 793 795 q 1108 432 1035 553 q 1181 248 1181 312 q 1153 150 1181 198 q 1080 72 1124 102 q 980 24 1036 41 q 870 2 925 7 q 745 -3 814 -3 q 672 -1 726 -3 q 567 3 618 1 q 489 5 515 5 l 330 11 q 172 14 283 14 q 88 10 122 14 q 8 -3 54 7 q 144 64 60 45 q 293 102 228 84 q 395 172 358 119 q 445 291 426 221 q 493 458 464 361 q 570 615 522 555 q 703 703 618 675 q 608 549 631 612 q 553 374 585 486 q 477 201 522 262 q 336 89 433 140 q 328 83 333 89 l 700 66 q 886 61 761 61 q 969 65 932 61 q 1040 83 1006 69 q 1100 125 1075 97 q 1125 180 1125 156 q 1108 257 1125 210 q 1060 357 1090 303 q 981 477 1029 410 q 878 608 933 543 q 628 842 758 753 q 345 930 497 930 q 247 910 283 930 q 194 846 210 890 q 178 725 178 801 q 186 627 178 691 q 195 530 195 563 q 186 494 195 511 q 162 454 177 476 q 139 416 146 432 z "},"Å":{"ha":806,"x_min":5,"x_max":842,"o":"m 705 134 q 612 61 661 89 q 515 21 564 33 q 411 4 466 8 q 283 0 356 0 l 231 0 q 71 21 136 0 q 5 106 5 41 q 19 163 5 134 q 64 236 33 193 q 425 497 193 408 q 314 529 363 507 q 240 581 266 550 q 214 647 214 612 q 279 758 214 706 q 442 848 345 810 q 634 907 539 886 q 783 928 729 928 q 842 884 842 928 q 766 758 842 846 q 644 730 710 730 l 659 745 q 728 824 709 798 q 747 867 747 850 q 737 887 747 880 q 708 895 726 895 q 546 853 645 895 q 373 748 446 812 q 300 616 300 684 q 450 525 300 525 q 545 531 484 525 q 647 536 607 536 q 708 522 708 536 q 664 481 708 500 q 509 436 621 462 q 395 407 442 422 q 292 361 347 391 q 124 244 217 321 q 31 111 31 167 q 51 80 31 87 q 134 72 71 72 l 372 72 q 486 76 439 72 q 586 94 533 80 q 705 134 639 108 z "},"Æ":{"ha":1225,"x_min":-125,"x_max":1311,"o":"m 572 456 q 590 538 582 503 q 604 600 597 572 q 619 659 611 628 q 651 735 629 693 q 702 821 672 777 q 755 892 731 865 q 787 912 768 905 q 847 930 806 920 q 770 831 802 887 q 717 714 738 776 q 687 610 696 653 q 656 453 677 566 q 745 473 703 453 q 821 526 787 494 q 892 603 855 558 l 983 720 q 1135 861 1061 814 q 1311 908 1208 908 q 1142 768 1238 858 q 979 612 1047 677 q 845 500 911 547 q 711 433 780 452 q 857 317 810 391 q 924 146 903 243 q 969 -63 944 50 q 1042 -248 994 -176 q 941 -151 981 -215 q 868 18 901 -87 q 811 202 834 123 q 761 339 788 281 q 650 428 724 412 q 576 158 621 280 q 461 -20 532 35 q 378 -53 418 -53 q 436 17 405 -30 q 495 136 467 64 q 545 314 523 209 q 564 425 549 339 q 416 345 486 413 q 253 144 368 293 q 54 -91 139 -4 q -125 -216 -31 -178 q 28 -43 -47 -149 q 167 157 102 64 q 312 322 232 251 q 511 433 393 393 q 407 499 451 452 q 295 652 362 545 q 201 801 229 760 q 122 892 174 842 q 277 845 223 892 q 367 708 331 799 l 406 597 q 441 524 422 553 q 492 475 460 494 q 572 456 524 456 z "},"Ç":{"ha":1120,"x_min":-28,"x_max":1055,"o":"m 786 494 q 908 458 878 477 q 954 421 932 446 q 991 363 975 396 q 1016 294 1008 330 q 1025 220 1025 258 q 995 111 1025 162 q 917 36 964 59 q 814 3 867 11 q 647 -5 760 -5 q 565 -4 617 -5 q 476 -1 513 -3 q 380 1 439 0 q 292 3 320 3 q 219 2 256 3 q 103 -2 182 1 q -28 -8 25 -5 q 63 68 18 47 q 161 89 109 89 q 216 86 178 89 q 272 83 254 83 q 310 82 282 83 q 353 81 338 81 q 424 82 376 81 q 497 83 471 83 q 651 78 557 83 q 794 72 745 72 q 910 79 875 72 q 958 108 945 87 q 970 175 970 129 q 951 278 970 227 q 905 358 933 329 q 799 410 875 388 q 639 433 724 431 q 567 467 567 437 q 575 488 567 477 q 595 500 583 498 q 774 519 692 504 q 918 580 856 534 q 981 711 981 627 q 886 843 981 798 q 614 889 791 889 q 483 882 547 889 q 368 861 418 874 q 286 828 319 847 q 239 733 239 800 q 242 685 239 715 q 249 626 245 655 q 256 572 254 596 q 258 525 258 549 q 205 395 258 462 l 167 631 q 158 733 158 707 q 182 815 158 787 q 267 864 206 844 q 400 898 325 882 q 555 922 475 913 q 697 930 635 930 q 888 908 806 930 q 1012 843 969 885 q 1055 742 1055 800 q 1016 624 1055 674 q 915 543 976 574 q 786 494 854 512 z "},"È":{"ha":1278,"x_min":56,"x_max":1225,"o":"m 1225 111 q 1135 28 1188 56 q 1008 0 1081 0 q 959 4 976 0 q 931 18 941 7 q 918 47 922 28 q 914 100 914 65 q 922 248 914 172 q 722 66 833 140 q 497 -8 611 -8 q 442 16 456 -8 q 428 111 428 41 q 449 286 428 194 q 513 514 469 378 q 572 708 556 650 q 589 811 589 765 q 553 879 589 855 q 450 903 517 903 q 309 887 382 903 q 180 832 235 871 q 125 728 125 793 q 147 604 125 688 q 170 472 170 519 q 136 361 170 408 l 97 497 q 56 700 56 640 q 123 833 56 781 q 283 909 191 886 q 458 933 376 933 q 612 901 563 933 q 661 800 661 869 q 654 722 661 760 q 628 619 647 684 l 586 486 q 524 258 545 354 q 503 66 503 163 q 522 28 503 28 q 814 172 669 28 q 927 332 893 252 q 994 533 961 412 q 1066 723 1027 654 q 1189 842 1104 793 q 1089 596 1140 735 q 1003 316 1039 456 q 961 75 966 176 q 1060 77 1020 75 q 1144 87 1099 79 q 1225 111 1188 96 z "},"É":{"ha":1331,"x_min":56,"x_max":1278,"o":"m 1225 111 q 1135 28 1188 56 q 1008 0 1081 0 q 959 4 976 0 q 931 18 941 7 q 918 47 922 28 q 914 100 914 65 q 922 248 914 172 q 722 66 833 140 q 497 -8 611 -8 q 442 16 456 -8 q 428 111 428 41 q 449 286 428 194 q 513 514 469 378 q 572 708 556 650 q 589 811 589 765 q 553 879 589 855 q 450 903 517 903 q 309 887 382 903 q 180 832 235 871 q 125 728 125 793 q 147 604 125 688 q 170 472 170 519 q 136 361 170 408 l 97 497 q 56 700 56 640 q 123 833 56 781 q 283 909 191 886 q 458 933 376 933 q 612 901 563 933 q 661 800 661 869 q 654 722 661 760 q 628 619 647 684 l 586 486 q 524 258 545 354 q 503 66 503 163 q 522 28 503 28 q 814 172 669 28 q 927 332 893 252 q 994 533 961 412 q 1066 723 1027 654 q 1189 842 1104 793 q 1089 596 1140 735 q 1003 316 1039 456 q 961 75 966 176 q 1060 77 1020 75 q 1144 87 1099 79 q 1225 111 1188 96 m 1253 1164 q 1261 1152 1257 1159 q 1271 1140 1266 1145 q 1278 1131 1275 1134 q 1108 1022 1246 1057 q 814 986 970 986 q 667 1006 719 986 q 630 1028 638 1016 q 623 1064 623 1040 q 725 1164 623 1095 q 781 1169 759 1169 q 850 1161 817 1169 l 831 1150 q 738 1089 762 1107 q 714 1055 714 1071 q 745 1019 714 1031 q 864 1011 772 1011 q 1018 1029 935 1011 q 1167 1082 1102 1047 q 1253 1164 1232 1116 z "},"Ê":{"ha":1086,"x_min":-144,"x_max":1280,"o":"m 1280 908 q 1112 768 1207 858 q 948 612 1017 677 q 815 500 880 547 q 681 433 749 452 q 826 317 780 391 q 893 146 873 243 q 938 -63 913 50 q 1011 -248 963 -176 q 910 -151 950 -215 q 837 18 871 -87 q 781 202 804 123 q 730 339 758 281 q 619 428 694 412 q 581 273 600 336 q 523 149 561 209 q 425 50 484 88 q 330 13 387 24 q 189 3 273 3 q 116 4 166 3 q 39 5 66 5 q -144 -5 -60 5 q -65 49 -102 31 q 19 76 -28 68 q 136 83 65 83 q 212 82 161 83 q 289 81 264 81 q 403 88 367 81 q 458 118 439 96 q 485 175 477 140 q 514 314 494 210 q 544 458 530 389 q 568 572 558 527 q 589 659 578 618 q 628 762 608 724 q 675 829 648 800 q 761 908 703 857 q 684 911 736 911 q 533 903 610 911 q 387 878 457 895 q 264 836 317 861 q 211 750 211 811 q 222 662 211 720 q 233 570 233 604 q 216 492 233 536 q 172 416 199 448 q 148 597 168 472 q 127 761 127 722 q 140 810 127 791 q 183 844 153 829 q 288 882 221 863 q 418 912 354 901 q 554 929 483 923 q 703 936 626 936 q 817 930 783 936 q 739 831 771 887 q 687 714 707 776 q 656 610 666 653 q 625 453 647 566 q 715 473 673 453 q 791 526 757 494 q 861 603 825 558 l 953 720 q 1104 861 1031 814 q 1280 908 1178 908 z "},"Ë":{"ha":1331,"x_min":5,"x_max":1267,"o":"m 1211 966 q 1250 924 1233 954 q 1267 878 1267 894 q 1256 725 1267 798 q 1220 531 1244 653 q 1185 341 1196 410 q 1175 200 1175 273 q 1196 32 1175 109 q 1261 -136 1217 -45 q 1145 42 1179 -71 q 1111 283 1111 156 q 1120 400 1111 339 q 1145 539 1129 460 q 1169 670 1160 617 q 1178 766 1178 723 q 1166 822 1178 784 q 1141 875 1154 859 q 1023 691 1069 795 q 930 436 978 587 q 848 252 897 334 q 731 114 798 171 q 577 27 665 57 q 380 -3 489 -3 q 190 13 277 -3 q 55 57 104 29 q 5 119 5 85 q 178 278 5 192 q 382 361 269 322 q 606 426 495 399 q 825 469 717 453 l 825 467 q 758 417 798 439 q 674 381 717 395 q 575 354 631 367 q 489 334 519 340 q 377 307 445 326 q 229 259 309 288 q 94 195 149 229 q 39 125 39 160 q 102 87 39 100 q 289 75 165 75 q 539 89 452 75 q 777 206 698 109 q 926 502 857 303 q 1045 802 995 701 q 1211 966 1096 903 z "},"Ì":{"ha":1697,"x_min":5,"x_max":1650,"o":"m 1645 -136 q 1572 -54 1601 -102 q 1526 53 1544 -5 q 1502 169 1509 111 q 1495 283 1495 227 q 1504 400 1495 339 q 1529 539 1513 460 q 1553 671 1544 617 q 1561 766 1561 726 q 1553 819 1561 781 q 1459 674 1497 755 q 1351 417 1421 593 q 1233 153 1281 241 q 1122 20 1184 64 q 1085 99 1095 59 q 1075 214 1075 140 q 1083 345 1075 276 q 1106 504 1091 414 q 1128 655 1120 594 q 1136 775 1136 716 q 1128 864 1136 810 q 1059 771 1088 822 q 1008 669 1029 720 q 968 555 988 618 q 930 436 948 493 q 848 252 897 334 q 731 114 798 171 q 577 27 665 57 q 380 -3 489 -3 q 190 13 277 -3 q 55 57 104 29 q 5 119 5 85 q 178 278 5 192 q 382 361 269 322 q 606 426 495 399 q 825 469 717 453 l 825 467 q 758 417 798 439 q 674 381 717 395 q 575 354 631 367 q 489 334 519 340 q 377 307 445 326 q 229 259 309 288 q 94 195 149 229 q 39 125 39 160 q 102 87 39 100 q 289 75 165 75 q 539 89 452 75 q 775 204 697 109 q 920 498 854 300 q 1034 793 987 696 q 1197 953 1082 890 q 1217 822 1217 907 q 1208 673 1217 751 q 1183 495 1199 595 q 1159 326 1167 396 q 1150 183 1150 255 q 1161 94 1150 127 q 1269 300 1217 163 q 1369 564 1322 437 q 1480 787 1416 691 q 1645 928 1545 882 q 1650 878 1650 883 q 1639 725 1650 798 q 1603 531 1628 653 q 1569 341 1579 410 q 1558 200 1558 273 q 1579 32 1558 109 q 1645 -136 1600 -45 z "},"Í":{"ha":1470,"x_min":5,"x_max":1430,"o":"m 1430 478 q 1219 408 1338 416 q 1158 114 1200 225 q 1115 16 1138 54 q 1078 -22 1092 -22 q 1072 -14 1072 -22 q 1078 11 1072 -5 q 1141 408 1121 125 q 1061 413 1114 410 q 964 417 1008 415 q 875 422 919 420 q 736 177 829 270 q 515 43 644 83 q 225 3 387 3 q 63 35 121 3 q 5 125 5 66 q 122 283 5 195 q 280 373 191 336 q 464 432 369 410 q 653 464 558 454 q 847 478 749 475 q 859 608 859 565 q 814 928 859 764 l 900 994 q 920 875 914 930 q 925 753 925 821 q 889 478 925 625 q 1147 469 1061 478 q 1190 715 1165 605 q 1263 931 1215 825 q 1383 1117 1310 1037 q 1378 1092 1378 1094 q 1303 901 1332 1001 q 1257 700 1274 801 q 1225 469 1240 598 q 1270 468 1246 469 q 1308 467 1294 467 q 1430 478 1357 467 m 839 422 q 433 385 618 422 q 114 241 248 347 q 55 181 76 211 q 33 131 33 152 q 49 97 33 109 q 99 80 64 85 q 197 75 134 75 q 362 87 274 75 q 539 119 451 98 q 734 230 656 151 q 839 422 813 309 z "},"Î":{"ha":1034,"x_min":58,"x_max":978,"o":"m 222 659 q 170 552 189 591 q 138 463 152 512 q 125 364 125 414 q 168 176 125 248 q 291 75 211 104 q 486 45 372 45 q 656 71 584 45 q 786 153 729 98 q 885 300 850 216 q 920 475 920 383 q 895 639 920 560 q 827 777 869 718 q 728 871 784 837 q 611 905 672 905 q 447 841 511 905 q 383 672 383 777 q 388 615 383 645 q 397 557 393 585 q 405 507 402 530 q 408 456 408 484 q 395 376 408 408 q 347 314 382 345 l 345 314 q 346 347 345 326 q 347 380 347 369 q 339 464 347 420 q 322 553 331 509 q 314 636 314 597 q 354 788 314 720 q 467 895 395 857 q 631 933 539 933 q 748 914 690 933 q 852 860 806 895 q 928 778 899 825 q 964 679 951 736 q 978 558 978 622 q 962 421 978 490 q 918 292 947 353 q 844 178 888 232 q 655 33 766 80 q 389 -14 543 -14 q 254 3 315 -14 q 149 56 193 20 q 82 148 105 92 q 58 283 58 204 q 68 397 58 343 q 102 504 79 452 q 158 603 125 556 q 192 646 179 634 q 225 661 205 657 l 222 659 z "},"Ï":{"ha":1767,"x_min":5,"x_max":1878,"o":"m 325 939 q 523 937 403 939 q 761 933 643 935 q 984 928 879 930 q 1203 922 1089 926 q 1213 921 1206 922 q 1222 920 1219 920 q 1246 921 1230 920 q 1270 922 1262 922 q 1383 1117 1326 1056 q 1378 1092 1378 1094 q 1314 917 1347 1030 q 1623 921 1453 917 q 1878 928 1792 925 q 1822 888 1851 907 q 1755 857 1793 869 q 1675 844 1718 844 q 1620 843 1660 844 q 1558 842 1580 842 q 1508 843 1535 842 q 1446 845 1482 844 q 1380 847 1411 846 q 1295 850 1349 848 q 1272 770 1277 789 q 1219 408 1241 615 q 1158 114 1200 225 q 1115 16 1138 54 q 1078 -22 1092 -22 q 1072 -14 1072 -22 q 1078 11 1072 -5 q 1141 408 1121 125 q 1211 766 1162 594 q 1225 805 1217 783 q 1242 856 1233 827 q 1114 861 1199 859 q 991 864 1029 863 q 731 878 940 866 q 411 897 522 890 q 228 903 300 903 q 124 865 157 903 q 92 745 92 827 q 101 655 92 714 q 111 561 111 596 q 64 416 111 516 q 20 694 20 606 q 98 887 20 836 q 325 939 177 939 m 847 758 l 920 836 q 922 795 920 828 q 925 753 925 763 q 918 654 924 715 q 901 533 912 593 q 875 422 890 472 q 778 227 840 308 q 632 96 715 145 q 447 25 549 47 q 225 3 346 3 q 63 35 121 3 q 5 125 5 66 q 122 283 5 195 q 269 369 189 334 q 432 424 350 404 q 603 456 513 444 q 791 475 692 469 q 745 433 791 449 q 667 416 699 416 q 361 370 496 410 q 114 241 225 330 q 55 181 76 211 q 33 131 33 152 q 49 97 33 109 q 99 80 64 85 q 197 75 134 75 q 362 87 274 75 q 539 119 451 98 q 734 230 656 151 q 839 422 813 309 q 859 608 859 515 l 859 656 q 847 758 859 697 z "},"Ð":{"ha":1261,"x_min":-53,"x_max":1200,"o":"m 783 781 q 692 619 717 675 q 632 417 667 555 q 561 194 597 278 q 448 55 524 111 q 239 0 372 0 q 94 3 191 0 q -53 5 -3 5 q 21 47 -20 31 q 112 71 61 64 q 233 78 163 78 q 315 75 269 78 q 386 72 362 72 q 441 89 421 72 q 476 150 461 105 q 514 302 491 194 q 552 453 534 390 q 601 578 571 515 q 677 695 631 642 q 783 781 723 748 m 164 253 q 106 360 151 283 q 38 490 62 437 q 14 581 14 542 q 50 665 14 619 q 153 753 86 711 q 346 843 235 805 q 577 902 456 882 q 825 922 699 922 q 1006 904 939 922 q 1117 842 1073 886 q 1178 743 1156 800 q 1200 623 1200 686 q 1149 458 1200 533 q 1011 340 1098 384 q 819 297 924 297 q 650 339 734 297 q 750 372 697 372 q 831 362 780 372 q 908 353 882 353 q 1016 380 962 353 q 1104 454 1069 408 q 1139 553 1139 500 q 1123 651 1139 600 q 1081 747 1108 702 q 1019 822 1054 793 q 789 886 952 886 q 269 783 502 886 q 174 726 216 758 q 107 661 132 694 q 83 600 83 627 q 95 544 83 572 q 129 472 106 516 q 165 394 152 429 q 178 322 178 359 q 164 253 178 291 z "},"Ñ":{"ha":842,"x_min":25,"x_max":778,"o":"m 700 117 q 525 24 610 50 q 322 -3 440 -3 q 110 50 194 -3 q 25 225 25 102 q 90 437 25 316 q 258 669 155 557 q 476 853 361 781 q 681 925 591 925 q 778 856 778 925 q 748 756 778 829 q 678 603 718 683 q 601 464 638 523 q 547 406 563 406 q 539 416 539 406 q 581 496 539 424 q 641 602 622 568 q 684 699 660 636 q 708 814 708 762 q 689 863 708 843 q 636 884 670 884 q 468 801 563 884 q 286 594 373 718 q 141 347 198 471 q 83 147 83 222 q 109 94 83 108 q 211 78 135 80 q 403 72 356 72 q 563 81 494 72 q 700 117 631 90 z "},"Ò":{"ha":1786,"x_min":20,"x_max":1878,"o":"m 1069 856 q 988 798 1018 831 q 941 719 958 765 q 909 602 924 672 q 872 428 895 532 q 804 155 833 261 q 733 -50 776 50 q 671 -158 703 -118 q 598 -217 639 -199 q 505 -236 557 -236 q 374 -222 461 -236 q 236 -208 286 -208 l 150 -208 q 353 -144 231 -144 q 424 -152 385 -144 q 500 -167 463 -159 q 570 -175 538 -175 q 624 -163 603 -175 q 659 -120 644 -151 q 689 -31 673 -90 q 714 86 695 -5 q 753 278 733 178 q 783 428 772 378 q 832 602 810 535 q 896 736 854 669 q 997 850 937 802 q 550 861 714 861 q 261 850 361 861 q 127 824 183 842 q 72 753 72 805 q 96 674 72 709 q 176 574 120 639 q 262 457 233 509 q 292 345 292 405 q 289 302 292 322 q 242 366 271 326 q 211 408 213 406 q 153 480 188 439 q 87 563 118 521 q 38 645 56 604 q 20 722 20 685 q 131 857 20 810 q 379 919 243 904 q 623 933 516 933 q 1203 922 841 933 q 1267 921 1219 922 q 1344 920 1316 920 q 1640 923 1482 920 q 1878 928 1799 926 q 1780 874 1843 902 q 1678 836 1717 846 q 1360 847 1583 840 q 1069 856 1138 854 z "},"Ó":{"ha":1261,"x_min":28,"x_max":1222,"o":"m 1222 869 q 1203 825 1207 834 q 1147 670 1169 744 q 1086 450 1126 597 l 1053 309 q 967 -2 1005 109 q 861 -196 928 -114 q 676 -321 794 -279 q 372 -364 559 -364 q 325 -362 351 -364 q 267 -358 300 -360 q 336 -261 301 -300 q 389 -285 359 -279 q 472 -292 418 -292 q 836 -178 744 -292 q 891 -59 865 -142 q 933 114 916 24 q 961 278 951 204 q 806 129 863 180 q 670 35 749 77 q 511 -8 592 -8 q 450 122 450 -8 q 469 274 450 183 q 524 500 488 366 q 579 713 560 634 q 597 839 597 791 q 582 884 597 868 q 539 900 567 900 q 424 880 496 900 q 279 825 352 860 q 157 747 206 791 q 109 656 109 703 q 150 486 109 610 l 214 302 l 111 347 q 70 462 85 419 q 41 554 55 505 q 28 642 28 604 q 87 739 28 686 q 233 836 146 791 q 414 908 321 880 q 570 936 507 936 q 651 913 622 936 q 681 850 681 890 q 670 766 681 821 q 640 636 659 711 q 608 509 621 561 l 558 297 q 522 109 522 157 q 532 54 522 75 q 555 33 541 33 q 630 58 578 33 q 733 117 682 82 q 912 292 852 197 q 1020 528 972 387 q 1104 740 1069 669 q 1222 869 1139 810 z "},"Ô":{"ha":1295,"x_min":-28,"x_max":1227,"o":"m 511 -31 q 563 200 544 116 q 620 426 583 285 q 697 690 656 567 q 772 884 737 814 q 604 859 690 878 q 440 814 517 841 q 297 750 363 787 q 200 670 245 720 q 130 568 156 621 q 103 481 103 516 q 156 301 103 361 q 295 215 210 240 q 437 174 380 189 q 494 127 494 159 l 494 78 q 489 22 494 41 q 410 79 477 56 q 246 139 343 102 q 91 246 149 176 q 33 439 33 315 q 52 525 33 474 q 104 627 71 576 q 180 711 138 677 q 352 811 252 768 q 569 882 453 854 q 789 917 685 909 q 928 1117 870 1063 q 920 1092 920 1100 q 833 920 882 1031 q 968 911 908 920 q 1072 881 1028 902 q 1145 825 1116 861 q 1205 702 1183 774 q 1227 547 1227 629 q 1199 389 1227 463 q 1117 258 1170 315 q 995 170 1065 201 q 847 139 924 139 q 677 189 760 139 q 778 233 722 233 q 859 221 807 233 q 936 208 910 208 q 1043 242 989 208 q 1132 335 1097 277 q 1166 461 1166 393 q 1158 555 1166 508 q 1133 647 1149 602 q 1095 733 1118 692 q 1047 800 1072 774 q 957 865 1011 844 q 819 886 902 886 q 791 800 806 853 q 755 664 777 746 q 719 517 734 581 q 697 436 703 453 q 628 160 658 269 q 555 -50 597 52 q 493 -158 526 -118 q 420 -217 461 -199 q 328 -236 380 -236 q 196 -222 283 -236 q 58 -208 109 -208 l -28 -208 q 175 -144 53 -144 q 246 -152 208 -144 q 322 -167 285 -159 q 392 -175 360 -175 q 469 -143 443 -175 q 511 -31 496 -112 z "},"Õ":{"ha":1278,"x_min":-53,"x_max":1239,"o":"m 1239 925 q 1180 786 1219 854 q 1093 662 1140 719 q 991 550 1045 606 q 864 422 937 494 q 910 245 891 318 q 954 98 929 173 q 1011 -48 978 22 q 1086 -180 1044 -118 q 1011 -126 1050 -170 q 932 -9 972 -83 q 856 161 892 65 q 789 367 819 257 q 699 270 746 321 q 610 179 651 218 q 517 99 569 140 q 414 31 466 59 q 369 12 389 17 q 322 4 350 6 q 228 3 295 3 l 66 3 q 42 1 60 3 q 17 0 24 0 q -53 14 -20 0 q 57 64 3 50 q 192 78 111 78 q 227 77 199 78 q 278 75 256 75 q 360 78 328 75 q 427 92 391 81 q 492 122 463 103 q 569 182 530 148 q 632 240 609 216 q 694 306 655 264 q 781 397 734 348 q 675 733 726 603 q 639 814 656 781 q 592 870 621 848 q 522 892 563 892 q 428 876 483 892 q 318 833 373 860 q 228 778 262 807 q 183 692 183 745 q 244 509 183 627 q 228 408 232 431 q 214 358 223 385 q 114 667 114 576 q 163 769 114 720 q 285 854 213 819 q 434 910 357 889 q 561 930 511 930 q 640 912 605 930 q 697 861 675 895 q 749 772 726 821 q 788 680 773 723 q 821 578 803 637 q 856 458 838 519 q 960 578 907 512 q 1056 716 1012 644 q 1136 861 1101 788 q 1181 893 1159 881 q 1239 925 1204 906 z "},"Ö":{"ha":1295,"x_min":56,"x_max":1225,"o":"m 1173 53 q 1008 0 1111 0 q 959 4 976 0 q 931 18 941 7 q 918 47 922 28 q 914 100 914 65 q 922 248 914 172 q 722 66 833 140 q 497 -8 611 -8 q 442 16 456 -8 q 428 111 428 41 q 449 286 428 194 q 513 514 469 378 q 572 708 556 650 q 589 811 589 765 q 553 879 589 855 q 450 903 517 903 q 309 887 382 903 q 180 832 235 871 q 125 728 125 793 q 147 604 125 688 q 170 472 170 519 q 136 361 170 408 l 97 497 q 56 700 56 640 q 123 833 56 781 q 283 909 191 886 q 458 933 376 933 q 612 901 563 933 q 661 800 661 869 q 654 722 661 760 q 628 619 647 684 l 586 486 q 524 258 545 354 q 503 66 503 163 q 522 28 503 28 q 814 172 669 28 q 927 332 893 252 q 994 533 961 412 q 1066 723 1027 654 q 1189 842 1104 793 q 1089 596 1140 735 q 1003 316 1039 456 q 961 75 966 176 q 1060 77 1020 75 q 1144 87 1099 79 q 1225 111 1188 96 q 1191 15 1213 58 q 1128 -69 1170 -29 q 1010 -165 1067 -130 q 895 -217 954 -201 q 766 -233 836 -233 q 623 -222 717 -233 q 472 -211 528 -211 q 347 -222 431 -211 q 416 -189 380 -202 q 484 -170 452 -176 q 554 -161 515 -163 q 631 -158 593 -158 q 703 -160 663 -158 q 766 -161 743 -161 q 979 -136 899 -161 q 1101 -64 1059 -110 q 1173 53 1143 -19 z "},"×":{"ha":1295,"x_min":56,"x_max":1225,"o":"m 922 248 q 991 481 950 388 q 870 357 937 414 q 723 262 802 299 q 567 225 643 225 q 511 252 526 225 q 497 345 497 278 q 512 488 497 422 q 558 663 528 554 q 589 811 589 772 q 553 879 589 855 q 450 903 517 903 q 309 887 382 903 q 180 832 235 871 q 125 728 125 793 q 147 604 125 688 q 170 472 170 519 q 136 361 170 408 l 97 497 q 56 700 56 640 q 123 833 56 781 q 283 909 191 886 q 458 933 376 933 q 612 901 563 933 q 661 800 661 869 q 654 722 661 760 q 628 619 647 684 q 583 456 593 509 q 572 300 572 404 q 591 261 572 261 q 884 406 739 261 q 948 480 920 442 q 998 558 977 519 q 1035 635 1019 597 q 1061 717 1050 673 q 1189 842 1107 793 q 1089 596 1140 735 q 1003 316 1039 456 q 961 75 966 176 q 1060 77 1020 75 q 1144 87 1099 79 q 1225 111 1188 96 q 1135 28 1188 56 q 1008 0 1081 0 q 959 4 976 0 q 931 18 941 7 q 918 47 922 28 q 914 100 914 65 q 912 124 914 111 q 911 144 911 138 q 922 248 911 164 z "},"Ø":{"ha":1786,"x_min":56,"x_max":1700,"o":"m 1034 406 q 992 230 1007 311 q 978 66 978 149 q 997 28 978 28 q 1289 172 1145 28 q 1402 332 1369 252 q 1470 533 1436 412 q 1541 723 1503 654 q 1664 842 1579 793 q 1591 666 1630 768 q 1518 457 1552 565 q 1462 249 1484 349 q 1436 75 1440 149 q 1535 77 1495 75 q 1619 87 1575 79 q 1700 111 1664 96 q 1483 0 1626 0 q 1433 4 1451 0 q 1406 18 1416 7 q 1393 47 1396 28 q 1389 100 1389 65 q 1397 248 1389 172 q 1275 123 1343 181 q 1128 29 1208 66 q 972 -8 1048 -8 q 917 16 930 -8 q 903 111 903 40 q 908 170 903 128 q 922 248 913 211 q 722 66 833 140 q 497 -8 611 -8 q 442 16 456 -8 q 428 111 428 41 q 449 286 428 194 q 513 514 469 378 q 572 708 556 650 q 589 811 589 765 q 553 879 589 855 q 450 903 517 903 q 309 887 382 903 q 180 832 235 871 q 125 728 125 793 q 147 604 125 688 q 170 472 170 519 q 136 361 170 408 l 97 497 q 56 700 56 640 q 123 833 56 781 q 283 909 191 886 q 458 933 376 933 q 612 901 563 933 q 661 800 661 869 q 654 722 661 760 q 628 619 647 684 l 586 486 q 524 258 545 354 q 503 66 503 163 q 522 28 503 28 q 814 172 669 28 q 927 332 893 252 q 994 533 961 412 q 1066 723 1027 654 q 1189 842 1104 793 q 1143 733 1172 806 q 1087 575 1115 659 q 1034 406 1059 492 z "},"Ù":{"ha":1767,"x_min":56,"x_max":1700,"o":"m 1645 53 q 1483 0 1579 0 q 1433 4 1451 0 q 1406 18 1416 7 q 1393 47 1396 28 q 1389 100 1389 65 q 1397 248 1389 172 q 1275 123 1343 181 q 1128 29 1208 66 q 972 -8 1048 -8 q 917 16 930 -8 q 903 111 903 40 q 908 170 903 128 q 922 248 913 211 q 722 66 833 140 q 497 -8 611 -8 q 442 16 456 -8 q 428 111 428 41 q 449 286 428 194 q 513 514 469 378 q 572 708 556 650 q 589 811 589 765 q 553 879 589 855 q 450 903 517 903 q 309 887 382 903 q 180 832 235 871 q 125 728 125 793 q 147 604 125 688 q 170 472 170 519 q 136 361 170 408 l 97 497 q 56 700 56 640 q 123 833 56 781 q 283 909 191 886 q 458 933 376 933 q 612 901 563 933 q 661 800 661 869 q 654 722 661 760 q 628 619 647 684 l 586 486 q 524 258 545 354 q 503 66 503 163 q 522 28 503 28 q 814 172 669 28 q 927 332 893 252 q 994 533 961 412 q 1066 723 1027 654 q 1189 842 1104 793 q 1143 733 1172 806 q 1087 575 1115 659 q 1034 406 1059 492 q 992 230 1007 311 q 978 66 978 149 q 997 28 978 28 q 1289 172 1145 28 q 1402 332 1369 252 q 1470 533 1436 412 q 1541 723 1503 654 q 1664 842 1579 793 q 1591 666 1630 768 q 1518 457 1552 565 q 1462 249 1484 349 q 1436 75 1440 149 q 1535 77 1495 75 q 1619 87 1575 79 q 1700 111 1664 96 q 1666 17 1689 62 q 1600 -69 1643 -28 q 1482 -165 1539 -130 q 1367 -217 1426 -201 q 1239 -233 1308 -233 q 1175 -231 1206 -233 q 1099 -223 1143 -228 q 1017 -214 1055 -218 q 945 -211 978 -211 q 819 -222 903 -211 q 949 -171 884 -183 q 1103 -158 1015 -158 q 1175 -160 1136 -158 q 1239 -161 1215 -161 q 1450 -136 1371 -161 q 1572 -64 1530 -110 q 1645 53 1615 -19 z "},"Ú":{"ha":1470,"x_min":20,"x_max":1402,"o":"m 1203 922 q 1075 857 1132 906 q 977 734 1019 808 q 904 567 935 659 q 847 358 873 475 q 806 230 825 273 q 751 150 788 187 q 650 83 713 113 q 730 81 689 81 q 802 82 754 81 q 875 83 850 83 q 966 81 909 83 q 1081 75 1024 78 q 1173 72 1139 72 q 1288 79 1253 72 q 1335 108 1323 87 q 1348 175 1348 129 q 1329 278 1348 227 q 1283 358 1311 329 q 1177 410 1253 388 q 1017 433 1101 431 q 945 467 945 437 q 952 489 945 479 q 972 500 960 500 l 997 500 q 1100 492 1040 500 q 1218 473 1160 484 q 1286 458 1276 463 q 1331 421 1310 446 q 1369 363 1353 396 q 1394 294 1385 330 q 1402 220 1402 258 q 1372 111 1402 162 q 1295 36 1342 59 q 1192 3 1245 11 q 1025 -5 1138 -5 q 943 -4 995 -5 q 854 -1 890 -3 q 758 1 817 0 q 669 3 698 3 q 597 2 634 3 q 481 -2 559 1 q 350 -8 403 -5 q 424 49 386 35 q 522 73 461 63 q 620 99 583 82 q 684 161 657 116 q 741 288 717 214 q 789 455 766 361 q 839 621 812 549 q 913 757 865 693 q 1034 867 960 821 l 939 867 q 824 866 874 867 q 732 864 774 865 q 642 862 690 863 q 550 861 594 861 q 261 850 361 861 q 127 824 183 842 q 72 753 72 805 q 96 674 72 709 q 176 574 120 639 q 262 457 233 509 q 292 345 292 405 q 289 302 292 322 q 242 366 271 326 q 211 408 213 406 q 153 480 188 439 q 87 563 118 521 q 38 645 56 604 q 20 722 20 685 q 131 857 20 810 q 379 919 243 904 q 623 933 516 933 q 1203 922 841 933 z "},"Û":{"ha":1558,"x_min":-28,"x_max":1492,"o":"m 469 358 q 429 230 447 273 q 373 150 410 187 q 272 83 336 113 q 353 81 311 81 q 424 82 376 81 q 497 83 471 83 q 651 78 557 83 q 794 72 745 72 q 910 79 875 72 q 958 108 945 87 q 970 175 970 129 q 951 278 970 227 q 905 358 933 329 q 799 410 875 388 q 639 433 724 431 q 567 467 567 437 q 575 489 567 479 q 595 500 583 500 l 619 500 q 786 483 680 500 q 908 458 891 466 q 954 421 932 446 q 991 363 975 396 q 1016 294 1008 330 q 1025 220 1025 258 q 995 111 1025 162 q 917 36 964 59 q 814 3 867 11 q 647 -5 760 -5 q 565 -4 617 -5 q 476 -1 513 -3 q 380 1 439 0 q 292 3 320 3 q 219 2 256 3 q 103 -2 182 1 q -28 -8 25 -5 q 46 49 8 35 q 144 73 83 63 q 242 99 205 82 q 306 161 279 116 q 363 288 339 214 q 411 456 388 361 q 505 708 446 599 q 672 886 564 817 q 644 888 663 886 q 614 889 624 889 q 483 882 547 889 q 368 861 418 874 q 286 828 319 847 q 239 733 239 800 q 242 685 239 715 q 249 626 245 655 q 256 572 254 596 q 258 525 258 549 q 205 395 258 462 l 167 631 q 158 733 158 707 q 185 816 158 785 q 267 864 212 847 q 414 896 328 884 q 590 912 500 907 q 761 917 681 917 l 811 917 q 684 852 739 900 q 592 732 630 804 q 526 574 553 661 q 469 358 498 488 m 1325 730 q 1375 789 1346 765 q 1455 842 1404 812 q 1356 596 1407 735 q 1269 316 1305 456 q 1227 75 1233 176 q 1327 77 1287 75 q 1411 87 1367 79 q 1492 111 1455 96 q 1275 0 1418 0 q 1225 4 1242 0 q 1198 18 1208 7 q 1184 47 1188 28 q 1181 100 1181 65 q 1179 123 1181 107 q 1178 144 1178 138 q 1189 248 1178 169 q 1250 489 1200 307 q 1325 730 1299 672 z "},"Ü":{"ha":1103,"x_min":-28,"x_max":1025,"o":"m 469 358 q 429 230 447 273 q 373 150 410 187 q 272 83 336 113 q 353 81 311 81 q 424 82 376 81 q 497 83 471 83 q 651 78 557 83 q 794 72 745 72 q 910 79 875 72 q 958 108 945 87 q 970 175 970 129 q 951 278 970 227 q 905 358 933 329 q 799 410 875 388 q 639 433 724 431 q 567 467 567 437 q 575 489 567 479 q 595 500 583 500 l 619 500 q 786 483 680 500 q 908 458 891 466 q 954 421 932 446 q 991 363 975 396 q 1016 294 1008 330 q 1025 220 1025 258 q 995 111 1025 162 q 917 36 964 59 q 814 3 867 11 q 647 -5 760 -5 q 565 -4 617 -5 q 476 -1 513 -3 q 380 1 439 0 q 292 3 320 3 q 219 2 256 3 q 103 -2 182 1 q -28 -8 25 -5 q 46 49 8 35 q 144 73 83 63 q 242 99 205 82 q 306 161 279 116 q 363 288 339 214 q 411 456 388 361 q 505 708 446 599 q 672 886 564 817 q 644 888 663 886 q 614 889 624 889 q 483 882 547 889 q 368 861 418 874 q 286 828 319 847 q 239 733 239 800 q 242 685 239 715 q 249 626 245 655 q 256 572 254 596 q 258 525 258 549 q 205 395 258 462 l 167 631 q 158 733 158 707 q 185 816 158 785 q 267 864 212 847 q 414 896 328 884 q 590 912 500 907 q 761 917 681 917 l 811 917 q 684 852 739 900 q 592 732 630 804 q 526 574 553 661 q 469 358 498 488 z "},"Ý":{"ha":1139,"x_min":-28,"x_max":1069,"o":"m 1008 453 q 920 418 970 433 q 828 403 870 403 q 771 405 796 403 q 712 411 745 407 q 644 418 678 414 q 583 425 609 422 q 530 429 563 425 q 484 433 498 433 q 383 425 442 433 q 479 483 450 469 q 564 497 508 497 q 625 490 586 497 q 721 471 664 484 q 816 452 778 459 q 872 444 854 444 q 938 453 911 444 q 1011 481 964 461 q 986 644 1011 567 q 919 780 962 722 q 820 872 876 838 q 703 905 763 905 q 466 881 596 905 q 286 828 335 857 q 239 733 239 800 q 242 685 239 715 q 249 626 245 655 q 256 572 254 596 q 258 525 258 549 q 205 395 258 462 l 167 631 q 158 733 158 707 q 182 815 158 787 q 267 864 206 844 q 405 900 328 884 q 555 926 482 917 q 697 936 628 936 q 790 925 743 936 q 882 893 838 914 q 962 842 925 873 q 1019 778 999 811 q 1056 679 1042 736 q 1069 558 1069 622 q 1054 421 1069 490 q 1009 292 1038 353 q 936 178 980 232 q 817 71 880 106 q 635 19 754 35 q 292 3 516 3 q 219 2 256 3 q 103 -2 182 1 q -28 -8 25 -5 q 63 68 18 47 q 161 89 109 89 q 216 86 178 89 q 272 83 254 83 q 310 82 282 83 q 353 81 338 81 q 424 82 376 81 q 497 83 471 83 q 511 82 501 83 q 525 81 522 81 q 667 85 603 81 q 788 106 730 90 q 878 153 846 122 q 970 289 937 212 q 1008 453 1004 366 z "},"Þ":{"ha":1733,"x_min":-125,"x_max":1681,"o":"m 608 411 q 479 109 566 218 q 211 0 393 0 q -125 8 42 0 q 39 59 -45 45 q 202 74 123 73 q 343 77 281 75 q 422 92 405 79 q 458 136 444 106 q 482 204 472 165 q 503 298 492 244 q 525 408 514 352 q 272 375 385 399 q 372 431 301 410 q 536 461 444 452 q 581 626 554 547 q 650 777 607 705 q 753 903 692 848 q 616 875 676 894 q 407 767 492 833 q 268 612 322 701 q 184 419 214 523 q 136 178 155 316 q 106 353 106 261 q 171 592 106 484 q 342 774 236 700 q 570 889 448 849 q 808 930 693 928 q 755 872 789 911 q 710 800 728 842 q 679 709 692 758 q 647 568 666 661 q 625 467 627 476 l 628 464 q 663 468 633 464 q 700 472 692 472 q 791 475 758 472 q 861 603 817 538 q 895 645 882 633 q 928 661 908 657 l 925 659 q 844 478 864 542 q 953 500 922 489 q 833 433 920 458 q 828 364 828 408 q 852 215 828 276 q 924 115 876 153 q 1037 61 972 77 q 1189 45 1101 45 q 1489 153 1377 45 q 1587 300 1552 216 q 1622 475 1622 383 q 1597 639 1622 560 q 1529 777 1572 718 q 1431 871 1487 837 q 1314 905 1375 905 q 1150 841 1213 905 q 1086 672 1086 776 q 1091 615 1086 645 q 1100 562 1096 585 q 1107 512 1103 539 q 1111 456 1111 484 q 1098 376 1111 408 q 1050 314 1084 345 l 1047 314 q 1048 347 1047 326 q 1050 380 1050 369 q 1042 464 1050 420 q 1025 553 1034 509 q 1017 636 1017 597 q 1040 755 1017 701 q 1107 850 1064 810 q 1207 911 1149 890 q 1333 933 1264 933 q 1451 914 1393 933 q 1555 860 1508 895 q 1630 778 1601 825 q 1667 679 1653 736 q 1681 558 1681 622 q 1665 421 1681 490 q 1620 292 1649 353 q 1547 178 1591 232 q 1358 34 1469 81 q 1092 -14 1246 -14 q 956 3 1018 -14 q 851 56 895 20 q 784 148 808 92 q 761 283 761 204 q 775 416 761 366 q 681 414 747 414 q 646 412 670 414 q 608 411 623 411 z "},"ß":{"ha":1348,"x_min":-100,"x_max":1280,"o":"m 1028 461 q 1053 549 1038 500 q 1086 652 1068 598 q 1115 745 1104 706 q 1125 803 1125 785 q 1077 880 1125 852 q 942 908 1028 908 q 658 859 798 908 q 406 729 517 810 q 229 553 294 648 q 164 367 164 457 q 243 259 164 298 q 458 220 323 220 q 596 237 523 220 q 748 287 669 255 q 903 361 827 319 q 949 389 923 372 q 996 425 975 406 q 1028 461 1017 444 m 1008 389 q 970 366 992 378 q 928 342 947 353 q 769 167 854 246 q 601 31 684 88 q 443 -58 517 -26 q 319 -89 370 -89 q 254 -86 286 -89 q 178 -78 221 -83 q 97 -70 136 -73 q 25 -66 58 -66 q -100 -78 -16 -66 q 30 -26 -35 -39 q 183 -14 96 -14 q 256 -15 216 -14 q 319 -17 295 -17 q 487 11 415 -13 q 618 77 559 35 q 719 161 677 119 q 839 292 760 203 q 740 245 781 263 q 642 212 698 228 q 525 189 586 197 q 392 180 463 180 q 260 195 320 180 q 159 234 200 209 q 95 296 117 258 q 72 378 72 334 q 106 494 72 431 q 203 623 140 558 q 350 745 267 688 q 489 827 418 792 q 632 885 560 862 q 779 921 703 908 q 936 933 855 933 q 1136 901 1057 933 q 1214 811 1214 869 q 1187 709 1214 793 q 1118 494 1160 625 q 1048 257 1076 364 q 1017 75 1021 151 q 1115 77 1076 75 q 1199 87 1155 79 q 1280 111 1244 96 q 1190 28 1244 56 q 1064 0 1137 0 q 1014 4 1031 0 q 987 18 997 7 q 974 47 977 28 q 970 100 970 65 q 968 124 970 111 q 966 144 966 138 q 978 248 966 164 q 1008 389 978 264 z "},"à":{"ha":597,"x_min":41,"x_max":564,"o":"m 564 94 q 494 16 518 35 q 433 -3 469 -3 q 367 26 389 -3 q 345 103 345 56 q 276 51 308 75 q 215 12 243 26 q 158 -3 186 -3 q 70 20 98 -3 q 41 92 41 43 q 71 202 41 146 q 147 302 100 258 q 251 372 194 346 q 361 397 307 397 q 478 309 478 397 q 466 232 478 272 q 430 136 453 191 q 400 64 406 80 l 433 64 q 564 94 518 64 m 414 325 q 364 372 414 372 q 240 338 298 372 q 148 247 182 304 q 114 125 114 190 q 129 77 114 90 q 183 64 144 64 q 268 78 239 64 q 334 134 298 92 q 389 227 364 168 q 414 325 414 285 z "},"á":{"ha":545,"x_min":41,"x_max":631,"o":"m 408 355 q 392 486 408 391 q 369 638 377 581 q 361 747 361 695 q 372 828 361 792 q 410 891 382 864 q 493 937 438 918 q 631 964 547 956 l 616 905 q 517 911 539 911 q 430 892 449 911 q 411 831 411 873 q 417 735 411 779 q 441 573 422 691 q 467 391 459 456 q 475 272 475 326 q 430 126 475 203 q 325 20 386 50 q 195 -8 271 -8 q 83 23 124 -8 q 41 106 41 54 q 81 245 41 175 q 185 361 121 316 q 319 406 250 406 q 408 355 352 406 m 406 208 q 395 285 406 247 q 359 349 385 323 q 294 375 334 375 q 205 343 247 375 q 139 262 163 311 q 114 167 114 214 q 142 77 114 101 q 248 53 170 53 q 339 68 304 53 q 390 117 374 83 q 406 208 406 151 z "},"â":{"ha":578,"x_min":11,"x_max":542,"o":"m 542 378 l 530 334 l 436 334 q 435 296 436 321 q 433 258 433 271 q 391 131 433 191 q 282 34 349 71 q 142 -3 215 -3 q 83 0 123 -3 q 25 3 44 3 q 23 1 24 1 q 22 0 22 0 q 11 8 11 0 l 11 11 q 22 45 11 14 q 96 312 50 100 q 174 646 142 524 q 266 874 206 767 q 411 981 326 981 q 500 905 500 981 q 419 733 500 810 q 353 684 366 684 q 347 692 347 684 q 408 778 372 720 q 444 892 444 837 q 395 950 444 950 q 241 639 309 950 q 210 487 226 560 q 178 353 193 414 q 138 201 163 293 q 97 61 112 109 q 139 58 117 58 q 302 89 254 58 q 368 151 345 113 q 392 233 392 190 q 382 289 392 268 q 347 334 372 311 l 269 334 l 283 378 l 542 378 z "},"ã":{"ha":386,"x_min":47,"x_max":336,"o":"m 297 342 q 274 268 297 305 q 210 180 251 231 q 170 117 170 128 q 180 73 170 85 q 216 61 191 61 q 257 67 238 61 q 294 83 276 74 q 336 106 312 92 q 258 22 296 52 q 186 -8 219 -8 q 120 11 142 -8 q 97 78 97 30 q 111 119 97 100 q 158 178 125 139 q 210 248 192 216 q 228 314 228 279 q 175 353 228 353 q 109 331 143 353 q 47 269 75 309 q 76 330 55 299 q 124 382 96 361 q 178 403 151 403 q 268 392 239 403 q 297 342 297 380 z "},"ä":{"ha":509,"x_min":-33,"x_max":481,"o":"m 378 125 q 329 76 349 96 q 285 37 309 56 q 235 8 262 19 q 178 -3 209 -3 q 104 7 133 -3 q 63 39 76 17 q 50 97 50 61 q 79 207 50 153 q 155 303 108 260 q 260 372 202 347 q 372 397 317 397 q 481 317 481 397 q 447 95 481 241 q 378 -150 413 -51 q 312 -312 345 -248 q 222 -418 279 -376 q 81 -461 165 -461 q -6 -449 22 -461 q -33 -411 -33 -437 q -16 -359 -33 -395 q 23 -295 1 -323 q 61 -267 46 -267 q 68 -270 65 -267 q 72 -278 72 -273 q 56 -304 72 -284 q 32 -335 39 -325 q 25 -358 25 -346 q 62 -397 25 -380 q 153 -414 100 -414 q 219 -375 193 -414 q 289 -214 245 -336 q 327 -95 310 -154 q 357 19 345 -36 q 378 125 370 73 m 422 317 q 408 360 422 348 q 358 372 394 372 q 245 338 300 372 q 156 247 191 303 q 122 131 122 191 q 140 79 122 95 q 200 64 158 64 q 286 80 250 64 q 350 131 321 96 q 402 220 382 170 q 422 317 422 270 z "},"å":{"ha":492,"x_min":41,"x_max":450,"o":"m 406 378 q 345 311 389 311 q 280 336 319 311 q 216 361 241 361 q 176 343 196 361 q 155 306 155 326 q 200 266 155 281 q 317 250 244 250 q 294 195 317 207 q 234 189 262 191 q 179 177 207 186 q 133 149 152 169 q 114 94 114 129 q 186 58 114 58 l 269 58 q 351 68 317 58 q 444 114 385 79 l 450 114 q 388 49 414 71 q 333 16 362 28 q 268 1 303 4 q 178 -3 233 -3 q 79 13 117 -3 q 41 72 41 29 q 76 146 41 119 q 175 205 110 172 q 126 237 138 225 q 114 269 114 249 q 130 326 114 298 q 172 373 146 355 q 228 392 198 392 l 241 392 l 406 378 z "},"æ":{"ha":911,"x_min":-3,"x_max":884,"o":"m 456 220 l 525 472 q 558 607 536 517 q 613 782 581 697 q 691 921 646 866 q 794 975 736 975 q 840 965 821 975 q 870 935 859 954 q 880 889 880 916 q 856 807 880 855 q 799 723 831 760 q 747 686 766 686 q 739 694 739 686 q 765 731 739 698 q 808 796 791 764 q 825 864 825 829 q 812 921 825 899 q 775 942 798 942 q 711 890 740 942 q 660 757 682 838 q 623 608 637 677 q 595 472 608 538 q 566 372 593 463 q 525 220 540 281 q 567 225 555 220 q 631 289 589 232 q 695 370 673 346 q 753 395 717 395 q 815 372 791 395 q 839 311 839 349 q 817 287 839 293 q 775 281 795 281 q 757 329 775 310 q 711 347 739 347 q 692 335 703 347 q 661 294 682 323 q 623 244 640 264 q 591 220 606 224 q 640 201 612 216 q 669 175 667 187 q 691 110 682 132 q 718 72 699 88 q 770 56 736 56 q 884 86 830 56 q 809 14 842 34 q 730 -5 777 -5 q 677 9 696 -5 q 642 61 659 23 q 610 126 631 98 q 564 170 589 154 q 517 186 538 186 q 492 112 500 138 q 474 56 484 85 q 453 0 465 28 l 397 0 q 423 98 397 18 q 450 189 448 178 q 366 173 395 189 q 304 116 338 157 q 248 53 271 75 q 81 -5 180 -5 q 17 14 35 -5 q -3 86 -1 34 q 35 62 16 68 q 89 56 54 56 q 139 65 115 56 q 183 91 163 75 q 234 133 204 106 q 278 175 263 161 q 329 201 289 186 q 392 220 368 216 q 380 233 385 222 q 375 258 375 243 q 376 290 375 269 q 378 319 378 311 q 370 347 378 347 q 309 329 342 347 q 253 281 276 310 q 222 284 239 281 q 205 297 205 288 q 214 311 205 303 q 284 371 242 347 q 364 395 326 395 q 403 325 403 395 l 403 267 q 419 225 403 233 q 436 221 423 222 q 456 220 448 220 z "},"ç":{"ha":492,"x_min":20,"x_max":416,"o":"m 155 378 l 322 392 l 336 392 q 391 365 369 392 q 414 302 414 338 q 408 269 414 292 q 387 237 402 248 q 325 205 372 226 q 390 159 364 182 q 416 103 416 136 q 411 72 416 95 q 355 13 397 29 q 253 -3 313 -3 q 136 4 174 -3 q 71 36 98 11 q 20 114 44 60 l 25 114 q 101 69 71 79 q 180 58 132 58 l 264 58 q 347 94 336 58 q 353 125 353 117 q 337 162 353 149 q 301 181 322 175 q 250 190 281 186 q 203 195 219 193 q 192 214 192 200 q 200 250 192 224 q 321 266 273 250 q 378 306 370 281 l 378 317 q 365 348 378 334 q 336 361 353 361 q 264 336 311 361 q 192 311 216 311 q 163 323 174 311 q 153 358 153 335 q 154 367 153 359 q 155 378 155 375 z "},"è":{"ha":578,"x_min":41,"x_max":533,"o":"m 419 383 q 422 348 419 370 q 425 309 425 326 q 418 225 425 264 q 395 144 412 186 q 355 61 379 102 q 425 64 399 61 q 478 77 450 66 q 533 109 507 87 q 466 23 498 49 q 392 -3 433 -3 q 337 17 353 -3 q 300 89 322 37 q 216 15 250 37 q 150 -8 182 -8 q 95 9 120 -8 q 56 55 71 26 q 41 117 41 83 q 58 191 41 151 q 90 270 74 231 q 106 345 106 310 q 104 376 106 363 q 98 407 102 389 q 92 441 95 425 q 141 378 124 412 q 158 311 158 345 q 152 264 158 288 q 136 209 146 239 q 120 156 125 179 q 114 109 114 132 q 125 70 114 81 q 164 58 137 58 q 269 92 229 58 q 328 176 309 125 q 356 284 347 227 q 370 383 364 341 l 419 383 z "},"é":{"ha":578,"x_min":41,"x_max":533,"o":"m 419 383 q 422 348 419 370 q 425 309 425 326 q 418 225 425 264 q 395 144 412 186 q 355 61 379 102 q 425 64 399 61 q 478 77 450 66 q 533 109 507 87 q 466 23 498 49 q 392 -3 433 -3 q 337 17 353 -3 q 300 89 322 37 q 216 15 250 37 q 150 -8 182 -8 q 95 9 120 -8 q 56 55 71 26 q 41 117 41 83 q 58 191 41 151 q 90 270 74 231 q 106 345 106 310 q 104 376 106 363 q 98 407 102 389 q 92 441 95 425 q 141 378 124 412 q 158 311 158 345 q 152 264 158 288 q 136 209 146 239 q 120 156 125 179 q 114 109 114 132 q 125 70 114 81 q 164 58 137 58 q 269 92 229 58 q 328 176 309 125 q 356 284 347 227 q 370 383 364 341 l 419 383 m 167 519 q 206 492 178 503 q 248 481 234 481 q 279 479 259 481 q 306 478 300 478 q 392 514 348 478 q 350 457 370 476 q 310 433 330 438 q 258 428 290 428 q 203 449 219 428 q 167 519 186 470 z "},"ê":{"ha":545,"x_min":8,"x_max":494,"o":"m 61 189 l 136 472 q 170 610 147 517 q 225 784 193 703 q 302 921 257 866 q 406 975 347 975 q 452 965 433 975 q 481 935 471 954 q 492 889 492 916 q 477 830 492 865 q 439 762 462 795 q 395 708 417 729 q 358 686 372 686 q 350 694 350 686 q 376 731 350 698 q 419 796 401 764 q 436 864 436 829 q 422 921 436 899 q 386 942 409 942 q 322 890 351 942 q 272 763 294 838 q 230 587 251 688 q 205 472 209 485 q 176 370 203 463 q 136 220 149 276 q 178 225 167 220 q 243 291 199 232 q 308 372 288 349 q 364 395 329 395 q 426 372 401 395 q 450 311 450 349 q 428 287 450 293 q 386 281 405 281 q 368 329 386 310 q 322 347 350 347 q 303 335 313 347 q 270 292 292 323 q 233 242 248 260 q 203 220 218 224 q 251 201 223 216 q 281 175 279 187 q 316 83 299 111 q 380 56 334 56 q 440 62 416 56 q 494 86 464 68 q 420 14 452 34 q 342 -5 388 -5 q 289 9 307 -5 q 253 61 271 23 q 221 126 242 98 q 175 170 200 154 q 127 186 150 186 q 103 111 113 143 q 81 45 92 78 q 64 0 70 13 l 8 0 q 33 94 8 16 q 61 189 58 172 z "},"ë":{"ha":578,"x_min":3,"x_max":533,"o":"m 372 61 q 461 71 423 61 q 533 109 498 80 q 380 -8 465 -8 q 304 25 339 -8 q 269 100 269 58 q 271 109 269 102 q 272 117 272 115 q 306 231 281 164 q 259 148 282 188 q 211 74 237 107 q 146 19 184 41 q 58 -3 107 -3 q 19 26 35 -3 q 3 81 3 55 q 50 56 3 56 q 213 137 137 56 q 336 350 288 219 q 334 379 336 368 q 328 410 332 390 q 322 441 324 431 q 372 378 355 412 q 389 311 389 345 q 383 264 389 288 q 367 209 377 239 q 350 156 356 179 q 345 109 345 132 q 350 75 345 85 q 372 61 355 65 z "},"ì":{"ha":806,"x_min":3,"x_max":764,"o":"m 306 231 q 272 117 281 164 q 271 109 272 115 q 269 100 269 102 q 304 25 269 58 q 380 -8 339 -8 q 447 15 412 -8 q 530 89 481 37 q 568 17 553 37 q 623 -3 584 -3 q 696 23 664 -3 q 764 109 729 49 q 709 77 737 87 q 655 64 680 66 q 586 61 629 61 q 626 144 610 102 q 649 225 642 186 q 656 309 656 264 q 653 348 656 326 q 650 383 650 370 l 600 383 q 586 284 595 341 q 559 176 578 227 q 500 92 540 125 q 395 58 460 58 q 356 70 368 58 q 345 109 345 81 q 350 156 345 132 q 367 209 356 179 q 383 264 377 239 q 389 311 389 288 q 372 378 389 345 q 322 441 355 412 q 328 410 324 431 q 334 379 332 390 q 336 350 336 368 q 213 137 288 219 q 50 56 137 56 q 3 81 3 56 q 19 26 3 55 q 58 -3 35 -3 q 146 19 107 -3 q 211 74 184 41 q 259 148 237 107 q 306 231 282 188 z "},"í":{"ha":578,"x_min":11,"x_max":533,"o":"m 339 214 q 356 302 348 245 q 370 383 363 359 l 419 383 q 422 348 419 370 q 425 309 425 326 q 418 225 425 264 q 395 144 412 186 q 355 61 379 102 q 425 64 399 61 q 478 77 450 66 q 533 109 507 87 q 466 23 498 49 q 392 -3 433 -3 q 300 89 326 -3 q 314 136 305 102 q 328 183 323 171 q 233 172 283 172 q 214 171 229 172 q 189 170 198 170 q 144 175 166 170 q 136 147 141 161 l 75 0 l 11 0 q 84 210 60 100 q 109 433 109 319 q 154 372 141 404 q 167 292 167 340 q 155 220 167 288 q 172 216 162 218 q 196 213 181 215 q 228 210 212 212 q 253 208 245 209 q 260 207 255 208 q 272 205 265 205 q 339 214 280 205 z "},"î":{"ha":509,"x_min":41,"x_max":475,"o":"m 475 272 q 431 124 475 197 q 325 20 388 51 q 195 -8 271 -8 q 83 23 124 -8 q 41 106 41 54 q 81 245 41 175 q 185 361 121 316 q 319 406 250 406 q 435 371 395 406 q 475 272 475 337 m 406 208 q 395 285 406 247 q 359 349 385 323 q 294 375 334 375 q 205 343 247 375 q 139 262 163 311 q 114 167 114 214 q 142 77 114 101 q 248 53 170 53 q 370 86 334 53 q 406 208 406 120 z "},"ï":{"ha":561,"x_min":11,"x_max":517,"o":"m 517 92 q 429 16 469 35 q 330 -3 389 -3 q 284 -1 317 -3 q 231 0 251 0 q 309 118 274 58 q 362 224 345 178 q 380 297 380 269 q 366 337 380 322 q 328 353 351 353 q 136 147 220 353 l 75 0 l 11 0 q 84 210 60 100 q 109 433 109 319 q 154 372 141 404 q 167 292 167 340 l 167 272 q 367 397 267 397 q 456 314 456 397 q 431 232 456 275 q 371 146 406 189 q 300 61 336 104 q 420 66 374 61 q 517 92 466 71 z "},"ð":{"ha":597,"x_min":-75,"x_max":547,"o":"m 297 675 q 178 322 218 515 q 263 389 231 373 q 342 406 295 406 q 416 388 385 406 q 466 338 448 370 q 484 267 484 307 q 459 179 484 216 q 399 112 435 142 q 334 58 363 82 q 378 57 351 58 q 416 56 406 56 q 547 94 486 56 q 484 33 513 52 q 422 6 456 13 q 330 0 388 0 q 127 -5 262 0 q 168 26 149 16 q 207 41 186 37 q 246 50 228 46 q 278 61 264 54 q 348 101 317 73 q 395 167 378 129 q 411 244 411 205 q 400 313 411 284 q 366 357 389 342 q 314 372 344 372 q 235 343 268 372 q 180 269 201 315 q 150 190 158 224 q 125 83 141 156 l 94 -66 q 17 -341 60 -229 q -56 -453 -26 -453 q -75 -441 -75 -453 q -66 -422 -75 -436 q -37 -336 -52 -390 q -16 -252 -22 -281 q 5 -150 -9 -223 q 28 -36 20 -77 l 66 142 q 118 361 95 275 q 185 535 140 447 q 297 675 229 624 z "},"ñ":{"ha":456,"x_min":41,"x_max":416,"o":"m 416 86 q 347 20 370 37 q 297 -1 324 3 q 200 -5 270 -5 q 41 106 41 -5 q 86 247 41 178 q 203 356 131 315 q 353 397 275 397 q 400 367 400 397 q 385 299 400 354 q 348 200 369 245 q 309 155 326 155 q 302 164 302 155 q 322 214 302 164 q 342 300 342 264 q 309 325 342 325 q 195 291 250 325 q 104 205 139 258 q 69 103 69 153 q 84 71 69 79 q 150 61 99 63 q 204 60 168 61 q 258 58 241 58 q 416 86 355 58 z "},"ò":{"ha":822,"x_min":11,"x_max":775,"o":"m 775 106 q 686 23 723 45 q 597 0 649 0 q 472 5 533 0 q 524 84 499 46 q 567 156 548 121 q 602 231 587 191 q 616 300 616 270 q 564 364 616 364 q 455 297 500 364 q 380 147 409 230 l 330 0 l 256 0 l 317 195 q 342 311 342 289 q 332 355 342 340 q 302 370 321 370 q 134 153 217 370 l 81 0 l 11 0 q 54 120 37 71 q 85 221 71 170 q 108 331 99 273 q 117 450 117 388 q 172 311 172 393 l 172 300 q 250 379 214 355 q 328 403 286 403 q 395 371 374 403 q 416 292 416 339 q 597 400 504 400 q 651 390 629 400 q 687 360 674 379 q 700 314 700 340 q 685 252 700 284 q 646 188 669 219 q 593 122 623 156 q 545 66 564 88 q 632 68 599 66 q 703 79 666 70 q 775 106 739 87 z "},"ó":{"ha":475,"x_min":-75,"x_max":436,"o":"m 436 389 q 412 183 431 300 q 359 -52 393 66 q 278 -272 326 -171 q 172 -422 230 -372 q 125 -451 149 -444 q 58 -458 102 -458 q -45 -447 -15 -458 q -75 -411 -75 -436 q -36 -326 -75 -387 q 25 -264 3 -264 q 31 -269 31 -264 q 15 -299 31 -279 q -7 -331 -1 -320 q -14 -358 -14 -341 q 119 -408 -14 -408 q 160 -392 144 -408 q 193 -336 176 -376 q 248 -183 210 -296 q 330 119 298 -30 q 266 53 286 73 q 214 16 246 34 q 147 -3 182 -3 q 73 26 99 -3 q 47 106 47 54 q 65 184 47 141 q 99 271 82 228 q 117 347 117 314 q 104 401 117 368 q 89 447 92 434 q 143 390 123 427 q 164 314 164 354 q 139 208 164 275 q 114 106 114 140 q 129 70 114 81 q 178 58 144 58 q 263 92 220 58 q 330 180 306 126 q 370 389 366 251 l 436 389 z "},"ô":{"ha":928,"x_min":61,"x_max":889,"o":"m 458 361 q 532 547 490 469 q 639 675 574 625 q 519 322 559 515 q 604 389 572 372 q 684 406 637 406 q 757 388 725 406 q 807 337 789 370 q 825 267 825 305 q 811 198 825 229 q 773 143 796 168 q 715 91 751 119 q 675 58 680 63 q 720 57 692 58 q 758 56 747 56 q 889 94 827 56 q 825 32 854 52 q 763 6 797 13 q 672 0 730 0 q 469 -5 604 0 q 518 31 497 22 q 571 46 539 39 q 619 61 604 53 q 716 131 680 80 q 753 244 753 181 q 742 313 753 284 q 708 357 730 342 q 656 372 686 372 q 576 343 610 372 q 522 269 543 315 q 491 190 500 224 q 467 83 483 156 l 436 -66 q 357 -341 401 -229 q 286 -453 314 -453 q 267 -441 267 -453 q 275 -422 267 -434 q 305 -336 290 -390 q 326 -252 319 -281 q 347 -150 332 -223 q 370 -36 361 -77 l 386 47 q 345 20 361 26 q 283 -1 318 7 q 214 -8 248 -8 q 133 6 167 -8 q 80 45 98 20 q 61 106 61 71 q 101 245 61 175 q 205 361 140 316 q 339 406 269 406 q 458 361 418 406 m 425 208 q 415 285 425 247 q 379 349 404 323 q 314 375 353 375 q 225 343 267 375 q 158 262 183 311 q 134 167 134 214 q 162 77 134 101 q 267 53 190 53 q 389 89 353 53 q 425 208 425 125 z "},"õ":{"ha":545,"x_min":11,"x_max":492,"o":"m 492 119 q 429 31 471 65 q 339 -3 386 -3 q 274 18 298 -3 q 239 67 250 38 q 220 147 229 97 q 152 78 187 115 q 78 9 116 41 q 22 -22 41 -22 q 15 -19 18 -22 q 11 -8 11 -15 q 41 22 11 -2 q 127 105 81 54 q 203 203 173 156 q 158 307 189 263 q 69 392 127 351 l 69 400 q 100 403 83 403 q 198 366 157 403 q 258 264 240 329 q 311 318 287 288 q 353 365 335 349 q 402 391 370 381 q 492 400 433 400 q 471 347 492 359 q 406 331 451 335 q 347 322 361 327 q 275 220 305 275 q 288 142 281 195 q 300 64 296 90 q 368 66 343 64 q 407 73 392 68 q 450 96 422 79 q 492 122 479 114 l 492 119 z "},"ö":{"ha":578,"x_min":41,"x_max":533,"o":"m 533 111 q 517 50 526 84 q 479 -25 504 18 q 444 -93 455 -68 q 431 -144 433 -117 q 414 -89 414 -104 q 424 -53 414 -68 q 455 -15 433 -38 q 489 24 477 8 q 503 64 500 41 q 452 13 480 29 q 392 -3 425 -3 q 337 17 353 -3 q 300 89 322 37 q 216 15 250 37 q 150 -8 182 -8 q 95 9 120 -8 q 56 55 71 26 q 41 117 41 83 q 58 191 41 151 q 90 270 74 231 q 106 345 106 310 q 104 376 106 363 q 98 407 102 389 q 92 441 95 425 q 141 378 124 412 q 158 311 158 345 q 152 264 158 288 q 136 209 146 239 q 120 156 125 179 q 114 109 114 132 q 125 70 114 81 q 164 58 137 58 q 269 92 229 58 q 328 176 309 125 q 356 284 347 227 q 370 383 364 341 l 419 383 q 422 348 419 370 q 425 309 425 326 q 418 225 425 264 q 395 144 412 186 q 355 61 379 102 q 455 71 414 61 q 533 111 497 81 z "},"÷":{"ha":578,"x_min":56,"x_max":533,"o":"m 419 383 q 422 348 419 370 q 425 309 425 326 q 418 225 425 264 q 395 144 412 186 q 355 61 379 102 q 425 64 399 61 q 478 77 450 66 q 533 109 507 87 q 466 23 498 49 q 392 -3 433 -3 q 348 11 366 -3 q 320 43 330 24 q 300 89 311 62 q 297 94 297 89 q 302 123 297 108 q 320 176 307 138 q 334 222 334 214 q 164 106 222 106 q 110 123 134 106 q 70 169 85 140 q 56 231 56 197 q 61 255 56 248 q 79 275 66 262 q 99 302 92 288 q 106 345 106 317 q 104 376 106 363 q 98 407 102 389 q 92 441 95 425 q 141 378 124 412 q 158 311 158 345 q 153 270 158 281 q 137 246 147 258 q 127 222 127 234 q 139 184 127 195 q 178 172 151 172 q 295 213 252 172 q 354 303 338 254 q 370 383 370 353 l 419 383 z "},"ø":{"ha":842,"x_min":41,"x_max":789,"o":"m 294 94 q 210 15 240 38 q 150 -8 180 -8 q 95 9 120 -8 q 56 55 71 26 q 41 117 41 83 q 58 191 41 151 q 90 270 74 231 q 106 345 106 310 q 104 376 106 363 q 98 407 102 389 q 92 441 95 425 q 141 378 124 412 q 158 311 158 345 q 152 264 158 288 q 136 209 146 239 q 120 156 125 179 q 114 109 114 132 q 125 70 114 81 q 164 58 137 58 q 249 81 208 58 q 294 125 290 104 q 314 193 304 170 q 337 248 323 217 q 356 299 351 279 q 361 345 361 319 q 358 380 361 361 q 353 413 355 400 q 347 441 351 425 q 396 379 378 414 q 414 311 414 345 q 408 264 414 288 q 392 209 402 239 q 375 156 381 179 q 370 109 370 132 q 381 70 370 81 q 419 58 392 58 q 525 92 485 58 q 584 176 564 125 q 611 284 603 227 q 625 383 620 341 l 675 383 q 678 348 675 370 q 681 309 681 326 q 674 225 681 264 q 651 144 667 186 q 611 61 635 102 q 680 64 654 61 q 734 77 705 66 q 789 109 762 87 q 722 23 754 49 q 647 -3 689 -3 q 593 17 609 -3 q 555 89 578 37 q 471 15 506 37 q 406 -8 437 -8 q 335 21 366 -8 q 294 94 304 51 z "},"ù":{"ha":842,"x_min":41,"x_max":803,"o":"m 370 364 q 361 441 370 393 q 428 311 428 380 q 406 208 428 274 q 383 109 383 141 q 395 70 383 81 q 433 58 406 58 q 538 92 498 58 q 597 174 578 125 q 625 282 616 223 q 639 383 633 341 l 689 383 q 692 346 689 370 q 694 309 694 321 q 678 184 694 242 q 625 61 662 127 q 724 71 683 61 q 803 111 766 81 q 786 50 800 100 q 749 -25 773 18 q 713 -93 724 -68 q 700 -144 703 -117 q 684 -89 684 -105 q 693 -53 684 -68 q 725 -15 703 -38 q 759 24 747 8 q 772 64 770 41 q 722 13 750 28 q 661 -3 694 -3 q 606 18 622 -3 q 570 89 589 39 q 486 15 520 37 q 419 -8 451 -8 q 343 19 373 -8 q 314 94 314 45 q 150 -8 216 -8 q 95 9 120 -8 q 56 55 71 26 q 41 117 41 83 q 58 191 41 151 q 90 270 74 231 q 106 345 106 310 q 104 376 106 363 q 98 407 102 389 q 92 441 95 425 q 141 378 124 412 q 158 311 158 345 q 152 264 158 288 q 136 209 146 239 q 120 156 125 179 q 114 109 114 132 q 125 70 114 81 q 164 58 137 58 q 269 89 229 58 q 328 167 309 119 q 356 271 347 214 q 370 364 364 327 z "},"ú":{"ha":614,"x_min":28,"x_max":575,"o":"m 311 350 q 276 343 305 349 q 233 336 247 336 q 164 338 210 336 q 94 339 119 339 q 31 336 58 339 l 28 342 q 82 387 45 372 q 175 403 119 403 q 237 396 203 403 q 294 389 271 389 q 370 397 297 389 q 351 297 364 360 q 330 211 338 233 q 486 286 406 286 q 575 203 575 286 q 529 112 575 161 q 427 27 484 62 q 347 -8 370 -8 q 293 9 317 -8 q 253 55 268 26 q 239 117 239 83 q 249 186 239 151 q 281 271 260 220 q 311 350 302 321 m 317 153 q 311 109 311 142 q 322 70 311 81 q 361 58 334 58 q 461 88 422 58 q 500 186 500 117 q 493 215 500 201 q 474 235 486 228 q 447 241 461 241 q 373 218 407 241 q 317 153 339 195 z "},"û":{"ha":720,"x_min":41,"x_max":672,"o":"m 134 211 q 289 286 208 286 q 378 203 378 286 q 331 111 378 161 q 229 27 285 62 q 150 -8 174 -8 q 95 9 120 -8 q 56 55 71 26 q 41 117 41 83 q 58 191 41 151 q 90 270 74 231 q 106 345 106 310 q 104 376 106 363 q 98 407 102 389 q 92 441 95 425 q 141 378 124 412 q 158 311 158 345 q 154 278 158 294 q 145 244 151 262 q 134 211 139 227 m 119 153 q 114 109 114 142 q 125 70 114 81 q 164 58 137 58 q 263 89 224 58 q 302 186 302 119 q 296 215 302 201 q 276 235 289 228 q 250 241 264 241 q 176 218 210 241 q 119 153 142 195 m 439 89 q 459 149 451 127 q 479 212 467 171 q 499 292 492 252 q 509 383 506 332 l 558 383 q 561 346 558 370 q 564 309 564 321 q 548 186 564 243 q 494 61 532 130 q 563 64 537 61 q 617 77 589 66 q 672 109 646 87 q 605 23 637 49 q 530 -3 572 -3 q 465 20 493 -3 q 436 72 436 43 q 437 81 436 74 q 439 89 439 87 z "},"ü":{"ha":422,"x_min":41,"x_max":378,"o":"m 134 211 q 289 286 208 286 q 378 203 378 286 q 331 111 378 161 q 229 27 285 62 q 150 -8 174 -8 q 95 9 120 -8 q 56 55 71 26 q 41 117 41 83 q 58 191 41 151 q 90 270 74 231 q 106 345 106 310 q 104 376 106 363 q 98 407 102 389 q 92 441 95 425 q 141 378 124 412 q 158 311 158 345 q 154 278 158 294 q 145 244 151 262 q 134 211 139 227 m 119 153 q 114 109 114 142 q 125 70 114 81 q 164 58 137 58 q 263 88 224 58 q 302 186 302 117 q 296 215 302 201 q 276 235 289 228 q 250 241 264 241 q 176 218 210 241 q 119 153 142 195 z "},"ý":{"ha":509,"x_min":33,"x_max":467,"o":"m 414 244 q 375 323 404 288 q 302 358 346 358 q 274 353 286 358 q 240 335 262 347 q 206 317 219 322 q 175 311 193 311 q 139 334 139 311 q 150 380 139 364 q 207 399 158 393 q 302 406 255 406 q 371 394 340 406 q 422 362 401 382 q 455 313 444 341 q 467 253 467 285 q 416 106 467 179 q 180 -5 340 -5 q 88 -1 111 -5 q 55 19 64 3 q 33 86 46 35 q 167 58 71 58 q 222 60 184 58 q 278 61 259 61 q 351 71 331 63 q 386 103 370 79 q 411 155 403 127 q 419 211 419 183 q 244 192 304 192 q 227 193 239 192 q 211 195 216 195 q 203 216 203 197 q 208 234 203 226 q 216 250 212 242 q 317 246 266 250 q 383 241 369 241 q 399 243 388 241 q 414 244 410 244 z "},"þ":{"ha":684,"x_min":11,"x_max":647,"o":"m 233 208 q 340 349 269 292 q 492 406 411 406 q 607 371 567 406 q 647 272 647 337 q 604 124 647 197 q 497 20 560 51 q 367 -8 443 -8 q 255 23 296 -8 q 214 106 214 54 q 225 192 214 144 q 187 183 213 192 q 153 175 161 175 l 147 178 q 143 164 146 172 q 136 147 140 155 l 75 0 l 11 0 q 84 210 60 100 q 109 433 109 319 q 154 372 141 404 q 167 292 167 340 q 161 261 167 288 q 153 214 156 234 q 183 208 163 208 l 233 208 m 578 208 q 567 285 578 247 q 531 349 557 323 q 467 375 506 375 q 377 343 419 375 q 311 262 336 311 q 286 167 286 214 q 314 77 286 101 q 419 53 342 53 q 512 68 477 53 q 562 116 547 83 q 578 208 578 149 z "},"ÿ":{"ha":667,"x_min":8,"x_max":625,"o":"m 367 392 q 416 389 379 392 q 478 386 454 386 q 494 387 482 386 q 511 389 507 389 q 515 358 513 385 q 519 314 518 331 q 499 184 515 241 q 447 61 484 127 q 516 64 490 61 q 570 77 542 66 q 625 109 599 87 q 558 23 590 49 q 484 -3 526 -3 q 422 25 448 -3 q 397 86 397 53 q 399 96 397 89 q 400 106 400 102 q 419 169 406 130 q 441 242 433 209 q 456 336 449 276 l 447 336 q 418 338 439 336 q 386 339 396 339 l 364 339 q 253 278 300 325 q 239 256 245 270 q 233 233 233 241 q 246 193 233 205 q 294 180 258 180 q 350 205 328 205 l 361 205 q 373 201 369 205 q 378 192 378 197 q 372 178 378 189 q 305 120 363 168 q 231 58 247 73 q 158 10 188 23 q 92 -3 128 -3 q 30 14 47 -3 q 8 81 12 31 q 97 53 40 53 q 145 61 123 53 q 184 83 166 69 q 225 119 202 96 q 269 161 248 141 q 183 233 183 165 q 211 300 187 269 q 284 365 239 337 q 367 392 329 392 z "}," ":{"ha":300,"x_min":0,"x_max":0,"o":""}}}
